<svg width="64" height="58" viewBox="0 0 64 58" fill="none" xmlns="http://www.w3.org/2000/svg">
<path d="M58.9771 19.6888C58.448 18.0006 57.5298 17.0622 56.3918 17.0464C55.2607 17.0384 54.3927 17.9975 54.1215 18.9609C53.8949 19.7669 53.9779 20.5623 54.0579 21.3317L54.0799 21.545C54.3749 24.4914 54.0135 27.7477 53.0985 30.8845C52.8546 29.5569 52.1828 28.6254 51.2113 28.3406C49.8721 27.9469 48.5633 28.9147 47.961 30.0719C47.6566 30.6562 47.4852 31.2706 47.3194 31.8646C47.2 32.2924 47.0875 32.6963 46.9309 33.076C46.3602 34.4598 45.1739 35.5649 43.9767 36.5529L43.4587 36.976C42.336 37.8892 41.175 38.8338 40.3179 40.0728C39.4266 41.3608 39.0727 42.9619 39.3062 44.3552C38.9487 44.3187 38.5792 44.3281 38.2084 44.4229C36.6715 44.8153 35.9263 46.2912 35.35 47.8278C34.9629 48.8604 34.598 50.0517 35.1761 51.1205C35.6811 52.0536 36.7199 52.4566 37.4074 52.7235C38.0159 52.96 38.9636 53.4079 40.0609 53.9266C43.6971 55.6448 46.8789 57.0729 48.6802 57.0729C48.8851 57.0729 49.072 57.0543 49.2397 57.0159C50.3638 56.7571 51.002 55.1826 51.5591 53.5924L51.6248 53.4058C51.9298 52.5459 52.4407 51.1063 51.8415 49.8604C51.6569 49.4766 51.3967 49.1692 51.0934 48.9092C54.9145 45.2816 57.9432 40.3514 59.2586 35.5671C60.6737 30.4209 60.5739 24.7819 58.9771 19.6888ZM47.5915 53.4901C47.0177 53.8109 46.2018 53.66 45.8097 53.1609C45.478 52.739 45.4253 52.0657 45.6811 51.5235C45.8708 51.1211 46.3416 50.7653 46.8615 50.7653C46.9384 50.7653 47.0165 50.7733 47.0949 50.7898C47.417 50.8583 48.1827 51.087 48.3352 51.7321C48.492 52.3971 48.1653 53.1692 47.5915 53.4901ZM58.0342 35.2304C56.7499 39.9013 53.7506 44.7213 49.9773 48.2136C49.6782 48.0736 49.3686 47.949 49.059 47.8328L41.0659 44.8342C40.9515 44.7913 40.8291 44.7462 40.703 44.7011C40.2875 43.549 40.5377 41.9864 41.362 40.7951C42.1165 39.7048 43.1577 38.8579 44.2601 37.9611L44.7849 37.5324C46.1092 36.4394 47.4279 35.2016 48.1049 33.5599C48.2902 33.1101 48.4183 32.6504 48.5423 32.2059C48.6976 31.6501 48.8439 31.1252 49.0869 30.6584C49.4459 29.969 50.206 29.3685 50.8545 29.5589C51.5805 29.7718 51.8852 30.8354 51.9283 31.7595C52.0343 34.0432 51.4187 36.3647 50.1948 38.2962C50.0073 38.5923 50.095 38.9847 50.3914 39.1723C50.6871 39.3598 51.0798 39.2724 51.2674 38.9757C52.0011 37.8177 52.531 36.5321 52.8522 35.1967C54.8731 30.8151 55.7815 25.7954 55.3434 21.4182L55.3208 21.2C55.2501 20.5196 55.1832 19.8766 55.3438 19.3047C55.4823 18.8137 55.8903 18.3217 56.3742 18.3162C57.1374 18.3267 57.6014 19.5453 57.7657 20.0688C59.2902 24.932 59.3857 30.3165 58.0342 35.2304Z" fill="white" fill-opacity="0.9"/>
<path d="M12.3888 48.909C12.0854 49.169 11.8252 49.4765 11.6406 49.8604C11.0417 51.1059 11.5523 52.5455 11.8576 53.4054L11.9224 53.5895C12.4794 55.1813 13.1177 56.757 14.2427 57.0159C14.4104 57.0543 14.5973 57.0729 14.8022 57.0729C16.6035 57.0729 19.7853 55.6448 23.4215 53.9265C24.5188 53.4079 25.4665 52.9599 26.075 52.7234C26.7625 52.4565 27.8016 52.0529 28.306 51.1202C28.8844 50.0513 28.5195 48.86 28.1321 47.8274C27.5558 46.2911 26.8103 44.8153 25.274 44.4228C24.9031 44.3279 24.5329 44.3185 24.1748 44.3553C24.4367 42.8094 23.9273 41.1751 23.1645 40.0727C22.3074 38.8337 21.1464 37.8892 20.0237 36.9759L19.506 36.5528C18.3085 35.5649 17.1222 34.4598 16.5515 33.076C16.3946 32.6959 16.2821 32.2917 16.1627 31.8636C15.9969 31.27 15.8258 30.6559 15.5214 30.0719C14.9191 28.915 13.6112 27.9487 12.2705 28.3406C11.2991 28.6253 10.6273 29.5567 10.3837 30.8841C9.4687 27.7471 9.10725 24.4909 9.40248 21.545L9.42479 21.328C9.50446 20.5598 9.58692 19.7653 9.36032 18.9606C9.09125 18.0052 8.2366 17.0464 7.11847 17.0464C7.10948 17.0464 7.10018 17.0464 7.09088 17.0464C5.95291 17.0622 5.03472 18.0005 4.50495 19.6887C2.9085 24.7819 2.80868 30.4209 4.22347 35.567C5.5395 40.3519 8.56802 45.2819 12.3888 48.909ZM17.0809 53.1608C16.6885 53.659 15.8732 53.8096 15.2994 53.49C14.7253 53.1692 14.3986 52.397 14.5554 51.7321C14.708 51.087 15.4733 50.8582 15.7951 50.7897C15.8738 50.7733 15.9519 50.7652 16.0291 50.7652C16.5487 50.7652 17.0199 51.1211 17.2096 51.5235C17.4653 52.0656 17.4126 52.7389 17.0809 53.1608ZM5.71639 20.0688C5.88068 19.5452 6.34505 18.3266 7.10855 18.3161C7.56858 18.3325 7.99977 18.8133 8.13834 19.3047C8.29891 19.8757 8.23226 20.5173 8.1619 21.1968L8.13896 21.4185C7.70063 25.7948 8.60929 30.8144 10.6302 35.1966C10.9514 36.532 11.4813 37.8177 12.215 38.9757C12.4029 39.2724 12.7947 39.3598 13.091 39.1722C13.3874 38.9847 13.4751 38.5922 13.2876 38.2962C12.0637 36.3646 11.4481 34.0431 11.5541 31.7594C11.5969 30.8354 11.9013 29.7718 12.6273 29.5591C13.2789 29.3691 14.0365 29.9686 14.3955 30.6584C14.6382 31.1249 14.7848 31.6494 14.9395 32.2049C15.0638 32.6497 15.1922 33.1098 15.3778 33.5602C16.0545 35.2016 17.3732 36.4394 18.6978 37.5324L19.2223 37.9611C20.3247 38.8579 21.3659 39.7048 22.1204 40.795C22.9445 41.9864 23.1948 43.5494 22.7793 44.7014C22.6532 44.7465 22.5308 44.7916 22.4165 44.8345L14.4228 47.833C14.1134 47.9492 13.8039 48.0735 13.505 48.2135C9.73199 44.7217 6.73242 39.9015 5.44793 35.2304C4.09669 30.3164 4.19217 24.9319 5.71639 20.0688Z" fill="white" fill-opacity="0.9"/>
<path d="M11.1067 16.9948C11.1408 18.0937 11.8659 18.9505 12.3956 19.5764C13.3321 20.683 14.2943 21.8647 15.2243 23.0073C16.1564 24.1521 17.1202 25.336 18.0626 26.4495C18.198 26.6097 18.4017 26.6919 18.6134 26.6708C18.8224 26.6488 19.0068 26.5248 19.1063 26.3397C19.6736 25.2842 20.8894 23.4801 22.6569 23.259C23.918 23.1019 25.263 23.8589 25.8579 25.0592C26.4298 26.2142 26.3015 27.757 25.538 28.8984C24.9 29.8519 23.4815 30.5441 21.7437 30.7493C21.5193 30.776 21.3261 30.9195 21.2359 31.1263C21.146 31.3333 21.1724 31.5727 21.306 31.7549L24.7041 36.3961C25.0652 36.8896 25.7373 37.8081 26.7776 37.8958C26.8337 37.9005 26.8889 37.9026 26.9435 37.9026C27.7851 37.9026 28.4531 37.3599 29.0176 36.8437C29.7755 36.1509 30.509 35.5108 31.2424 34.8703C31.7254 34.4491 32.208 34.0275 32.6978 33.5913C33.3953 35.4962 35.2651 36.9758 37.3061 37.0821C39.7355 37.207 42.1206 35.3775 42.6293 33.002C43.031 31.1244 42.3797 28.7022 40.6937 27.421C42.3438 26.4113 43.8971 25.2414 45.3225 23.9333C46.0649 23.2516 46.7887 22.4822 47.0541 21.475C47.5085 19.7515 46.4781 18.1417 45.5339 17.0946C45.3435 16.8838 45.1476 16.6752 44.9511 16.4659C44.4396 15.9216 43.947 15.3971 43.5518 14.8335C44.5816 14.6692 45.5661 14.0942 46.2078 13.2324C47.041 12.113 47.2924 10.5498 46.864 9.15264C46.4648 7.85162 45.5081 6.7124 44.24 6.02671C42.8388 5.2694 41.2117 5.16184 39.888 5.73625C38.936 6.14977 38.1812 6.95327 37.7891 7.88541L34.523 3.23122C33.9827 2.46089 33.0785 1.17196 31.673 0.943493C30.5914 0.769899 28.7597 2.06504 25.7599 4.5214C25.2723 4.92066 24.851 5.26568 24.652 5.40208C24.448 5.54157 24.3436 5.78647 24.3842 6.03043C24.4248 6.27408 24.603 6.47216 24.8411 6.53788C26.3591 6.95761 27.6189 7.91733 28.2972 9.17093C29.0099 10.489 29.013 12.1109 28.3053 13.3025C27.5802 14.5245 26.0526 15.2222 24.7525 14.9278C23.7289 14.6956 22.7716 13.8908 22.1256 12.7194C21.5562 11.6865 21.1972 10.6883 20.8866 9.27447C20.8407 9.06523 20.6922 8.89318 20.492 8.81692C20.2923 8.7416 20.0667 8.77074 19.8934 8.89721L13.4025 13.6149C12.6405 14.1689 11.0549 15.3214 11.1067 16.9948ZM19.8738 10.481C20.1655 11.5606 20.5168 12.4308 21.014 13.3325C21.8345 14.8211 23.0949 15.854 24.4716 16.1659C26.3133 16.5843 28.3865 15.6531 29.397 13.951C30.3282 12.383 30.3348 10.2698 29.4138 8.56676C28.7485 7.33703 27.6447 6.33856 26.2984 5.72168C26.3827 5.65255 26.4714 5.58001 26.5647 5.50375C27.5901 4.66399 30.7071 2.10751 31.4699 2.19678C32.279 2.32884 32.9083 3.14039 33.4836 3.96031L37.6133 9.84516C37.7764 10.0783 38.0755 10.1731 38.3433 10.0795C38.6118 9.98528 38.7848 9.72396 38.7665 9.44001C38.7014 8.42355 39.401 7.33207 40.3936 6.90119C41.3493 6.48642 42.5914 6.57973 43.6361 7.14391C44.6138 7.67213 45.3479 8.5401 45.6501 9.52494C45.9623 10.5429 45.7856 11.6732 45.1892 12.4742C44.5769 13.2963 43.5233 13.7411 42.5651 13.5808C42.3317 13.5415 42.1001 13.6342 41.9575 13.8192C41.8143 14.0046 41.7849 14.2538 41.881 14.4674C42.3859 15.5896 43.2195 16.4771 44.0258 17.3351C44.2164 17.5382 44.4064 17.7406 44.5909 17.9452C45.1923 18.6117 46.1523 19.9149 45.8265 21.1514C45.6352 21.8768 45.0227 22.4847 44.4638 22.9977C42.8373 24.4906 41.0368 25.7957 39.1127 26.8769C38.8985 26.9972 38.773 27.2303 38.7904 27.4752C38.8077 27.7204 38.9652 27.9334 39.194 28.022C40.9367 28.6981 41.7489 31.0488 41.3874 32.736C41.004 34.5284 39.2138 35.9119 37.3721 35.8142C35.5413 35.7188 33.8931 34.1586 33.6972 32.3362C33.6718 32.0984 33.5146 31.8947 33.2905 31.8101C33.067 31.7258 32.8147 31.7742 32.6377 31.9357C31.8779 32.6303 31.1426 33.272 30.4076 33.9137C29.6667 34.5603 28.9259 35.207 28.1608 35.9069C27.7392 36.2916 27.2848 36.663 26.8843 36.6305C26.4562 36.5945 26.0634 36.1038 25.7286 35.6462L22.9328 31.8275C24.1077 31.5534 25.6964 30.9452 26.5932 29.6042C27.6171 28.0738 27.7749 26.0688 26.9955 24.4956C26.1685 22.8269 24.2785 21.7764 22.4995 21.9992C20.651 22.2302 19.3286 23.596 18.4563 24.9441C17.7064 24.0452 16.9478 23.113 16.2091 22.2057C15.2751 21.0584 14.3092 19.8718 13.3647 18.7561C12.8349 18.13 12.3947 17.562 12.3758 16.9557C12.3485 16.075 13.2118 15.3233 14.1489 14.6423L19.8738 10.481Z" fill="white" fill-opacity="0.9"/>
<path d="M62.0241 35.7033C63.2321 31.5293 63.4348 27.0679 62.6109 22.8012C62.5442 22.4565 62.2104 22.2314 61.8672 22.2981C61.5228 22.3647 61.2978 22.6976 61.3641 23.0417C62.1502 27.1122 61.9568 31.3684 60.8046 35.3505C60.7069 35.6871 60.901 36.0393 61.2379 36.1366C61.2968 36.1537 61.356 36.1621 61.4146 36.1621C61.6899 36.1621 61.9438 35.9813 62.0241 35.7033Z" fill="white" fill-opacity="0.9"/>
<path d="M60.4313 39.275C60.5107 39.3079 60.5928 39.3237 60.6737 39.3237C60.923 39.3237 61.1595 39.1758 61.2605 38.9313L61.4298 38.523C61.5643 38.1994 61.4112 37.8277 61.0873 37.6932C60.7639 37.5589 60.392 37.7121 60.2574 38.0357L60.0875 38.4458C59.9533 38.7698 60.1074 39.1411 60.4313 39.275Z" fill="white" fill-opacity="0.9"/>
<path d="M39.7309 23.9017C39.8784 23.9017 40.0269 23.8506 40.1469 23.7461L42.1119 22.038C42.4266 21.7646 42.8574 21.3905 43.05 20.8402C43.2713 20.2082 43.129 19.4574 42.669 18.8315C42.306 18.3374 41.8208 17.9961 41.3928 17.6948C41.1051 17.493 40.7098 17.5621 40.508 17.8485C40.3062 18.1353 40.3751 18.5314 40.6618 18.7332C41.0276 18.9905 41.4058 19.2565 41.646 19.5835C41.8512 19.8628 41.9318 20.1911 41.8515 20.4208C41.7703 20.653 41.5093 20.8796 41.279 21.0796L39.3143 22.7876C39.0495 23.0176 39.0213 23.4184 39.2513 23.6832C39.3769 23.8276 39.5533 23.9017 39.7309 23.9017Z" fill="white" fill-opacity="0.9"/>
<path d="M38.2853 25.0738C38.4462 25.0738 38.6071 25.013 38.7308 24.8915L38.789 24.8336L38.3436 24.381L37.8656 23.9609L38.2853 24.4389L37.8399 23.9864C37.59 24.2325 37.5869 24.6342 37.8327 24.8844C37.957 25.0106 38.121 25.0738 38.2853 25.0738Z" fill="white" fill-opacity="0.9"/>
<path d="M14.2799 7.85845L9.25182 12.0179C8.98151 12.2414 8.94369 12.6416 9.16719 12.9116C9.29274 13.0635 9.47408 13.1419 9.65666 13.1419C9.79926 13.1419 9.94247 13.0942 10.0609 12.9962L15.0889 8.83678C15.3592 8.61328 15.3971 8.21308 15.1736 7.94308C14.9501 7.67246 14.5492 7.63495 14.2799 7.85845Z" fill="white" fill-opacity="0.9"/>
<path d="M17.0282 7.1895L17.2045 6.95608C17.4153 6.67585 17.3589 6.27782 17.0787 6.06703C16.7981 5.85624 16.4004 5.91327 16.1896 6.19288L16.0151 6.42383C15.8037 6.70344 15.8592 7.10178 16.1388 7.31319C16.2535 7.39968 16.3877 7.44152 16.521 7.44152C16.7132 7.44152 16.9032 7.35473 17.0282 7.1895Z" fill="white" fill-opacity="0.9"/>
<path d="M5.72574 45.4154C5.88539 45.4154 6.04534 45.3555 6.16872 45.2353C6.41981 44.9907 6.42508 44.5886 6.1805 44.3375C4.05056 42.1506 2.62088 39.2841 2.15497 36.2669C2.10134 35.9201 1.77399 35.6829 1.43083 35.7362C1.08426 35.7899 0.846501 36.1141 0.900129 36.4604C1.40603 39.7367 2.95815 42.8487 5.27099 45.2235C5.39529 45.3512 5.56052 45.4154 5.72574 45.4154Z" fill="white" fill-opacity="0.9"/>
<path d="M6.53365 45.8659C6.28566 46.1139 6.28566 46.5157 6.53365 46.7637L6.70972 46.9394C6.83341 47.0625 6.99554 47.1242 7.15735 47.1242C7.3204 47.1242 7.48346 47.0619 7.60746 46.9369C7.85483 46.6883 7.85359 46.2866 7.60497 46.0392L7.43138 45.8659C7.18339 45.6179 6.78164 45.6179 6.53365 45.8659Z" fill="white" fill-opacity="0.9"/>
</svg>
