<svg width="64" height="64" viewBox="0 0 64 64" fill="none" xmlns="http://www.w3.org/2000/svg">
<path d="M58.9762 22.6888C58.447 21.0006 57.5288 20.0622 56.3909 20.0464C55.2597 20.0384 54.3917 20.9975 54.1205 21.9609C53.8939 22.7669 53.977 23.5623 54.0569 24.3317L54.079 24.545C54.3739 27.4914 54.0125 30.7477 53.0975 33.8845C52.8536 32.5569 52.1818 31.6254 51.2103 31.3406C49.8711 30.9469 48.5624 31.9147 47.9601 33.0719C47.6556 33.6562 47.4842 34.2706 47.3184 34.8646C47.199 35.2924 47.0865 35.6963 46.93 36.076C46.3593 37.4598 45.1729 38.5649 43.9758 39.5529L43.4578 39.976C42.335 40.8892 41.1741 41.8338 40.317 43.0728C39.4256 44.3608 39.0717 45.9619 39.3052 47.3552C38.9478 47.3187 38.5782 47.3281 38.2075 47.4229C36.6705 47.8153 35.9253 49.2912 35.3491 50.8278C34.9619 51.8604 34.597 53.0517 35.1751 54.1205C35.6801 55.0536 36.7189 55.4566 37.4065 55.7235C38.015 55.96 38.9626 56.4079 40.06 56.9266C43.6961 58.6448 46.8779 60.0729 48.6792 60.0729C48.8841 60.0729 49.0711 60.0543 49.2388 60.0159C50.3628 59.7571 51.0011 58.1826 51.5581 56.5924L51.6238 56.4058C51.9289 55.5459 52.4397 54.1063 51.8405 52.8604C51.6559 52.4766 51.3958 52.1692 51.0924 51.9092C54.9136 48.2816 57.9422 43.3514 59.2576 38.5671C60.6727 33.4209 60.5729 27.7819 58.9762 22.6888ZM47.5906 56.4901C47.0168 56.8109 46.2009 56.66 45.8087 56.1609C45.477 55.739 45.4243 55.0657 45.6801 54.5235C45.8698 54.1211 46.3407 53.7653 46.8605 53.7653C46.9374 53.7653 47.0155 53.7733 47.0939 53.7898C47.416 53.8583 48.1817 54.087 48.3342 54.7321C48.4911 55.3971 48.1643 56.1692 47.5906 56.4901ZM58.0332 38.2304C56.749 42.9013 53.7496 47.7213 49.9763 51.2136C49.6772 51.0736 49.3676 50.949 49.058 50.8328L41.065 47.8342C40.9506 47.7913 40.8281 47.7462 40.702 47.7011C40.2866 46.549 40.5367 44.9864 41.361 43.7951C42.1155 42.7048 43.1568 41.8579 44.2591 40.9611L44.7839 40.5324C46.1082 39.4394 47.4269 38.2016 48.1039 36.5599C48.2893 36.1101 48.4173 35.6504 48.5413 35.2059C48.6966 34.6501 48.8429 34.1252 49.0859 33.6584C49.4449 32.969 50.205 32.3685 50.8535 32.5589C51.5795 32.7718 51.8842 33.8354 51.9273 34.7595C52.0333 37.0432 51.4177 39.3647 50.1938 41.2962C50.0063 41.5923 50.094 41.9847 50.3904 42.1723C50.6861 42.3598 51.0789 42.2724 51.2664 41.9757C52.0001 40.8177 52.53 39.5321 52.8512 38.1967C54.8721 33.8151 55.7805 28.7954 55.3425 24.4182L55.3198 24.2C55.2492 23.5196 55.1822 22.8766 55.3428 22.3047C55.4813 21.8137 55.8893 21.3217 56.3732 21.3162C57.1364 21.3267 57.6004 22.5453 57.7647 23.0688C59.2893 27.932 59.3847 33.3165 58.0332 38.2304Z" fill="black"/>
<path d="M12.3873 51.909C12.084 52.169 11.8238 52.4765 11.6391 52.8604C11.0402 54.1059 11.5508 55.5455 11.8561 56.4054L11.9209 56.5895C12.478 58.1813 13.1162 59.757 14.2412 60.0159C14.4089 60.0543 14.5958 60.0729 14.8007 60.0729C16.6021 60.0729 19.7838 58.6448 23.42 56.9265C24.5174 56.4079 25.465 55.9599 26.0735 55.7234C26.7611 55.4565 27.8001 55.0529 28.3045 54.1202C28.8829 53.0513 28.5181 51.86 28.1306 50.8274C27.5543 49.2911 26.8088 47.8153 25.2725 47.4228C24.9016 47.3279 24.5315 47.3185 24.1733 47.3553C24.4352 45.8094 23.9259 44.1751 23.163 43.0727C22.3059 41.8337 21.145 40.8892 20.0222 39.9759L19.5045 39.5528C18.307 38.5649 17.1207 37.4598 16.55 36.076C16.3931 35.6959 16.2806 35.2917 16.1613 34.8636C15.9954 34.27 15.8243 33.6559 15.5199 33.0719C14.9176 31.915 13.6097 30.9487 12.269 31.3406C11.2976 31.6253 10.6259 32.5567 10.3823 33.8841C9.46723 30.7471 9.10578 27.4909 9.40101 24.545L9.42333 24.328C9.503 23.5598 9.58545 22.7653 9.35885 21.9606C9.08978 21.0052 8.23514 20.0464 7.117 20.0464C7.10802 20.0464 7.09872 20.0464 7.08942 20.0464C5.95144 20.0622 5.03325 21.0005 4.50348 22.6887C2.90703 27.7819 2.80722 33.4209 4.22201 38.567C5.53803 43.3519 8.56656 48.2819 12.3873 51.909ZM17.0795 56.1608C16.687 56.659 15.8717 56.8096 15.2979 56.49C14.7238 56.1692 14.3971 55.397 14.554 54.7321C14.7065 54.087 15.4719 53.8582 15.7936 53.7897C15.8724 53.7733 15.9505 53.7652 16.0277 53.7652C16.5472 53.7652 17.0184 54.1211 17.2081 54.5235C17.4638 55.0656 17.4111 55.7389 17.0795 56.1608ZM5.71492 23.0688C5.87922 22.5452 6.34358 21.3266 7.10709 21.3161C7.56711 21.3325 7.99831 21.8133 8.13687 22.3047C8.29745 22.8757 8.2308 23.5173 8.16043 24.1968L8.13749 24.4185C7.69917 28.7948 8.60782 33.8144 10.6288 38.1966C10.95 39.532 11.4798 40.8177 12.2135 41.9757C12.4014 42.2724 12.7932 42.3598 13.0896 42.1722C13.3859 41.9847 13.4737 41.5922 13.2861 41.2962C12.0623 39.3646 11.4466 37.0431 11.5526 34.7594C11.5954 33.8354 11.8998 32.7718 12.6258 32.5591C13.2774 32.3691 14.035 32.9686 14.394 33.6584C14.6367 34.1249 14.7834 34.6494 14.938 35.2049C15.0624 35.6497 15.1907 36.1098 15.3764 36.5602C16.0531 38.2016 17.3718 39.4394 18.6964 40.5324L19.2209 40.9611C20.3232 41.8579 21.3644 42.7048 22.119 43.795C22.943 44.9864 23.1933 46.5494 22.7778 47.7014C22.6518 47.7465 22.5294 47.7916 22.415 47.8345L14.4213 50.833C14.1119 50.9492 13.8025 51.0735 13.5035 51.2135C9.73053 47.7217 6.73095 42.9015 5.44647 38.2304C4.09522 33.3164 4.1907 27.9319 5.71492 23.0688Z" fill="black"/>
<path d="M11.1062 19.9948C11.1403 21.0937 11.8654 21.9505 12.3952 22.5764C13.3316 23.683 14.2938 24.8647 15.2238 26.0073C16.156 27.1521 17.1197 28.336 18.0621 29.4495C18.1975 29.6097 18.4012 29.6919 18.6129 29.6708C18.8219 29.6488 19.0063 29.5248 19.1058 29.3397C19.6731 28.2842 20.8889 26.4801 22.6564 26.259C23.9175 26.1019 25.2625 26.8589 25.8574 28.0592C26.4293 29.2142 26.301 30.757 25.5375 31.8984C24.8995 32.8519 23.481 33.5441 21.7432 33.7493C21.5188 33.776 21.3257 33.9195 21.2354 34.1263C21.1455 34.3333 21.1719 34.5727 21.3055 34.7549L24.7036 39.3961C25.0648 39.8896 25.7368 40.8081 26.7771 40.8958C26.8332 40.9005 26.8884 40.9026 26.943 40.9026C27.7846 40.9026 28.4526 40.3599 29.0171 39.8437C29.775 39.1509 30.5085 38.5108 31.2419 37.8703C31.7249 37.4491 32.2075 37.0275 32.6973 36.5913C33.3948 38.4962 35.2647 39.9758 37.3056 40.0821C39.735 40.207 42.1201 38.3775 42.6288 36.002C43.0305 34.1244 42.3792 31.7022 40.6932 30.421C42.3433 29.4113 43.8966 28.2414 45.322 26.9333C46.0644 26.2516 46.7882 25.4822 47.0536 24.475C47.508 22.7515 46.4776 21.1417 45.5334 20.0946C45.343 19.8838 45.1471 19.6752 44.9506 19.4659C44.4391 18.9216 43.9465 18.3971 43.5513 17.8335C44.5811 17.6692 45.5656 17.0942 46.2073 16.2324C47.0406 15.113 47.292 13.5498 46.8635 12.1526C46.4643 10.8516 45.5077 9.7124 44.2395 9.02671C42.8383 8.2694 41.2112 8.16184 39.8875 8.73625C38.9356 9.14977 38.1807 9.95327 37.7886 10.8854L34.5225 6.23122C33.9822 5.46089 33.078 4.17196 31.6725 3.94349C30.5909 3.7699 28.7592 5.06504 25.7594 7.5214C25.2718 7.92066 24.8505 8.26568 24.6515 8.40208C24.4476 8.54157 24.3431 8.78647 24.3837 9.03043C24.4243 9.27408 24.6026 9.47216 24.8406 9.53788C26.3586 9.95761 27.6185 10.9173 28.2967 12.1709C29.0094 13.489 29.0125 15.1109 28.3048 16.3025C27.5797 17.5245 26.0521 18.2222 24.752 17.9278C23.7284 17.6956 22.7711 16.8908 22.1251 15.7194C21.5557 14.6865 21.1967 13.6883 20.8861 12.2745C20.8402 12.0652 20.6917 11.8932 20.4915 11.8169C20.2918 11.7416 20.0662 11.7707 19.8929 11.8972L13.402 16.6149C12.64 17.1689 11.0544 18.3214 11.1062 19.9948ZM19.8734 13.481C20.1651 14.5606 20.5163 15.4308 21.0135 16.3325C21.834 17.8211 23.0945 18.854 24.4711 19.1659C26.3128 19.5843 28.386 18.6531 29.3965 16.951C30.3278 15.383 30.3343 13.2698 29.4133 11.5668C28.7481 10.337 27.6442 9.33856 26.2979 8.72168C26.3822 8.65255 26.4709 8.58001 26.5642 8.50375C27.5896 7.66399 30.7066 5.10751 31.4695 5.19678C32.2785 5.32884 32.9078 6.14039 33.4831 6.96031L37.6128 12.8452C37.7759 13.0783 38.075 13.1731 38.3429 13.0795C38.6113 12.9853 38.7843 12.724 38.766 12.44C38.7009 11.4235 39.4005 10.3321 40.3931 9.90119C41.3488 9.48642 42.591 9.57973 43.6356 10.1439C44.6133 10.6721 45.3474 11.5401 45.6496 12.5249C45.9618 13.5429 45.7851 14.6732 45.1887 15.4742C44.5764 16.2963 43.5228 16.7411 42.5646 16.5808C42.3312 16.5415 42.0996 16.6342 41.957 16.8192C41.8138 17.0046 41.7844 17.2538 41.8805 17.4674C42.3854 18.5896 43.219 19.4771 44.0253 20.3351C44.2159 20.5382 44.4059 20.7406 44.5904 20.9452C45.1918 21.6117 46.1518 22.9149 45.826 24.1514C45.6347 24.8768 45.0222 25.4847 44.4633 25.9977C42.8368 27.4906 41.0364 28.7957 39.1123 29.8769C38.898 29.9972 38.7725 30.2303 38.7899 30.4752C38.8072 30.7204 38.9647 30.9334 39.1935 31.022C40.9362 31.6981 41.7484 34.0488 41.387 35.736C41.0035 37.5284 39.2133 38.9119 37.3717 38.8142C35.5409 38.7188 33.8926 37.1586 33.6967 35.3362C33.6713 35.0984 33.5141 34.8947 33.29 34.8101C33.0665 34.7258 32.8142 34.7742 32.6372 34.9357C31.8774 35.6303 31.1421 36.272 30.4071 36.9137C29.6662 37.5603 28.9254 38.207 28.1603 38.9069C27.7387 39.2916 27.2843 39.663 26.8838 39.6305C26.4557 39.5945 26.0629 39.1038 25.7281 38.6462L22.9323 34.8275C24.1072 34.5534 25.6959 33.9452 26.5927 32.6042C27.6166 31.0738 27.7744 29.0688 26.9951 27.4956C26.168 25.8269 24.278 24.7764 22.499 24.9992C20.6505 25.2302 19.3281 26.596 18.4558 27.9441C17.7059 27.0452 16.9474 26.113 16.2087 25.2057C15.2747 24.0584 14.3087 22.8718 13.3642 21.7561C12.8344 21.13 12.3942 20.562 12.3753 19.9557C12.348 19.075 13.2114 18.3233 14.1485 17.6423L19.8734 13.481Z" fill="black"/>
<path d="M62.0241 38.7033C63.2321 34.5293 63.4348 30.0679 62.6109 25.8012C62.5442 25.4565 62.2104 25.2314 61.8672 25.2981C61.5228 25.3647 61.2978 25.6976 61.3641 26.0417C62.1502 30.1122 61.9568 34.3684 60.8046 38.3505C60.7069 38.6871 60.901 39.0393 61.2379 39.1366C61.2968 39.1537 61.356 39.1621 61.4146 39.1621C61.6899 39.1621 61.9438 38.9813 62.0241 38.7033Z" fill="black"/>
<path d="M60.4308 42.275C60.5102 42.3079 60.5923 42.3237 60.6732 42.3237C60.9225 42.3237 61.159 42.1758 61.2601 41.9313L61.4293 41.523C61.5638 41.1994 61.4107 40.8277 61.0868 40.6932C60.7635 40.5589 60.3915 40.7121 60.2569 41.0357L60.0871 41.4458C59.9528 41.7698 60.1069 42.1411 60.4308 42.275Z" fill="black"/>
<path d="M39.7294 26.9017C39.877 26.9017 40.0255 26.8506 40.1454 26.7461L42.1105 25.038C42.4251 24.7646 42.856 24.3905 43.0485 23.8402C43.2698 23.2082 43.1275 22.4574 42.6675 21.8315C42.3045 21.3374 41.8194 20.9961 41.3913 20.6948C41.1036 20.493 40.7084 20.5621 40.5066 20.8485C40.3048 21.1353 40.3736 21.5314 40.6603 21.7332C41.0261 21.9905 41.4043 22.2565 41.6445 22.5835C41.8498 22.8628 41.9304 23.1911 41.8501 23.4208C41.7689 23.653 41.5078 23.8796 41.2775 24.0796L39.3128 25.7876C39.0481 26.0176 39.0199 26.4184 39.2499 26.6832C39.3754 26.8276 39.5518 26.9017 39.7294 26.9017Z" fill="black"/>
<path d="M38.2838 28.0738C38.4447 28.0738 38.6056 28.013 38.7293 27.8915L38.7876 27.8336L38.3421 27.381L37.8641 26.9609L38.2838 27.4389L37.8384 26.9864C37.5885 27.2325 37.5854 27.6342 37.8313 27.8844C37.9556 28.0106 38.1195 28.0738 38.2838 28.0738Z" fill="black"/>
<path d="M14.2794 10.8585L9.25133 15.0179C8.98102 15.2414 8.9432 15.6416 9.1667 15.9116C9.29225 16.0635 9.47359 16.1419 9.65618 16.1419C9.79877 16.1419 9.94199 16.0942 10.0604 15.9962L15.0884 11.8368C15.3587 11.6133 15.3966 11.2131 15.1731 10.9431C14.9496 10.6725 14.5487 10.635 14.2794 10.8585Z" fill="black"/>
<path d="M17.0262 10.1895L17.2026 9.95608C17.4134 9.67585 17.357 9.27782 17.0767 9.06703C16.7962 8.85624 16.3985 8.91327 16.1877 9.19288L16.0132 9.42383C15.8017 9.70344 15.8572 10.1018 16.1368 10.3132C16.2515 10.3997 16.3858 10.4415 16.5191 10.4415C16.7113 10.4415 16.9013 10.3547 17.0262 10.1895Z" fill="black"/>
<path d="M5.72476 48.4154C5.88441 48.4154 6.04436 48.3555 6.16774 48.2353C6.41883 47.9907 6.4241 47.5886 6.17952 47.3375C4.04958 45.1506 2.61991 42.2841 2.15399 39.2669C2.10036 38.9201 1.77301 38.6829 1.42986 38.7362C1.08329 38.7899 0.845524 39.1141 0.899153 39.4604C1.40506 42.7367 2.95718 45.8487 5.27001 48.2235C5.39432 48.3512 5.55954 48.4154 5.72476 48.4154Z" fill="black"/>
<path d="M6.53365 48.8659C6.28566 49.1139 6.28566 49.5157 6.53365 49.7637L6.70972 49.9394C6.83341 50.0625 6.99554 50.1242 7.15735 50.1242C7.3204 50.1242 7.48346 50.0619 7.60746 49.9369C7.85483 49.6883 7.85359 49.2866 7.60497 49.0392L7.43138 48.8659C7.18339 48.6179 6.78164 48.6179 6.53365 48.8659Z" fill="black"/>
</svg>
