<svg width="463" height="463" viewBox="0 0 463 463" fill="none" xmlns="http://www.w3.org/2000/svg">
<path d="M0 88C0 39.3989 39.3989 0 88 0H375C423.601 0 463 39.3989 463 88V375C463 423.601 423.601 463 375 463H88C39.3989 463 0 423.601 0 375V88Z" fill="#80ED99"/>
<path fill-rule="evenodd" clip-rule="evenodd" d="M324.11 264.356C384.799 225.093 425.681 171.249 426.338 132.008C441.751 172.169 393.89 240.447 318.988 285.069C319.351 283.933 319.671 282.772 319.959 281.585L324.11 264.356Z" fill="#68D681"/>
<path fill-rule="evenodd" clip-rule="evenodd" d="M160.882 358.635H302.868C333.639 358.635 358.763 333.524 358.763 302.769V160.864C358.763 157.646 358.481 154.488 357.974 151.404C385.07 129.552 410.213 117.366 428.362 121.747C347.381 88.2189 247.263 266.009 228.048 301.037L157.382 195.819L223.349 234.491C263.12 183.48 306.136 144.588 343.273 122.339C333.069 111.68 318.714 105 302.868 105H160.882C130.12 105 105 130.108 105 160.863V302.768C104.999 333.524 130.12 358.635 160.882 358.635Z" fill="white"/>
</svg>
