<svg width="161" height="200" viewBox="0 0 161 200" fill="none" xmlns="http://www.w3.org/2000/svg">
<g clip-path="url(#clip0_127_928)">
<path d="M119.026 194.105H8.28934C7.50792 194.104 6.75875 193.794 6.2062 193.241C5.65366 192.688 5.34284 191.939 5.34197 191.158L0.289495 2.95868C0.288733 2.57089 0.364361 2.18675 0.512062 1.82819C0.659762 1.46963 0.87664 1.14367 1.15032 0.868929C1.42399 0.594188 1.74911 0.376046 2.10709 0.226954C2.46507 0.077863 2.84891 0.000742971 3.2367 0H113.974C114.755 0.000875951 115.504 0.311683 116.057 0.864232C116.609 1.41678 116.92 2.16595 116.921 2.94737L117.836 37.0413L116.995 37.0639L116.079 2.95868C116.08 2.68143 116.026 2.40675 115.921 2.15031C115.815 1.89387 115.66 1.6607 115.465 1.46414C115.269 1.26758 115.037 1.11147 114.781 1.00474C114.525 0.898009 114.251 0.842746 113.974 0.842105H3.2367C2.67855 0.842753 2.14345 1.06477 1.74878 1.45944C1.3541 1.85411 1.13209 2.38922 1.13144 2.94737L6.18392 191.147C6.18311 191.424 6.23693 191.699 6.34231 191.955C6.44769 192.211 6.60256 192.445 6.79809 192.641C6.99361 192.838 7.22595 192.994 7.48182 193.101C7.7377 193.207 8.0121 193.263 8.28934 193.263H119.026C119.584 193.263 120.119 193.041 120.514 192.646C120.909 192.251 121.131 191.716 121.131 191.158L120.148 154.538L120.99 154.515L121.973 191.147C121.974 191.534 121.899 191.919 121.751 192.277C121.603 192.636 121.386 192.962 121.113 193.236C120.839 193.511 120.514 193.729 120.156 193.878C119.798 194.027 119.414 194.105 119.026 194.105Z" fill="black" fill-opacity="0.1"/>
<path d="M119.193 87.5677L118.351 87.5903L118.785 103.753L119.627 103.73L119.193 87.5677Z" fill="black" fill-opacity="0.1"/>
<path d="M109.089 177.52H17.3591C16.6927 177.519 16.0537 177.254 15.5824 176.783C15.1112 176.311 14.8461 175.672 14.8453 175.006L10.6601 19.1105C10.6593 18.7797 10.7236 18.4519 10.8495 18.1459C10.9754 17.8399 11.1604 17.5618 11.3938 17.3273C11.6272 17.0928 11.9045 16.9066 12.2099 16.7793C12.5153 16.652 12.8428 16.5861 13.1737 16.5854H104.904C105.57 16.5862 106.209 16.8513 106.681 17.3226C107.152 17.7938 107.417 18.4328 107.418 19.0992L108.176 37.0349L107.334 37.0702L106.576 19.1169C106.577 18.8961 106.535 18.6772 106.452 18.4727C106.369 18.2682 106.246 18.0821 106.091 17.9252C105.935 17.7682 105.75 17.6435 105.547 17.5581C105.343 17.4727 105.125 17.4284 104.904 17.4276H13.1737C12.7305 17.4281 12.3056 17.6044 11.9922 17.9178C11.6788 18.2312 11.5026 18.656 11.5021 19.0992L15.6873 174.995C15.6864 175.215 15.729 175.433 15.8125 175.637C15.8961 175.841 16.019 176.026 16.1743 176.183C16.3296 176.339 16.5142 176.463 16.7175 176.548C16.9207 176.633 17.1388 176.677 17.3591 176.678H109.089C109.533 176.677 109.957 176.501 110.271 176.187C110.584 175.874 110.761 175.449 110.761 175.006L110.219 154.537L111.061 154.515L111.603 174.995C111.604 175.326 111.539 175.653 111.413 175.959C111.288 176.265 111.103 176.543 110.869 176.778C110.636 177.012 110.358 177.199 110.053 177.326C109.748 177.453 109.42 177.519 109.089 177.52Z" fill="black" fill-opacity="0.1"/>
<path d="M109.3 87.9889L108.458 88.0112L108.881 104.011L109.723 103.989L109.3 87.9889Z" fill="black" fill-opacity="0.1"/>
<path d="M133.498 88H26.1294C25.3522 87.9992 24.6067 87.6917 24.0549 87.1444C23.503 86.597 23.1894 85.8541 23.1822 85.0769L21.4979 39.579C21.4987 38.7975 21.8095 38.0484 22.3621 37.4958C22.9146 36.9433 23.6638 36.6325 24.4452 36.6316H131.814C132.591 36.6324 133.336 36.9399 133.888 37.4872C134.44 38.0345 134.754 38.7775 134.761 39.5547L136.445 85.0526C136.444 85.8341 136.134 86.5832 135.581 87.1358C135.028 87.6883 134.279 87.9991 133.498 88ZM22.3401 39.5568L24.0242 85.0526C24.0248 85.6108 24.2468 86.1459 24.6415 86.5406C25.0362 86.9353 25.5713 87.1573 26.1294 87.1579H133.498C134.052 87.1573 134.584 86.9383 134.978 86.5484C135.372 86.1585 135.597 85.6291 135.603 85.0748L133.919 39.579C133.918 39.0208 133.696 38.4857 133.302 38.091C132.907 37.6964 132.372 37.4743 131.814 37.4737H24.4452C23.8909 37.4743 23.3592 37.6933 22.9651 38.0832C22.5711 38.4731 22.3466 39.0025 22.3401 39.5568Z" fill="black"/>
<path d="M153.708 154.947H46.34C45.5628 154.946 44.8173 154.639 44.2654 154.092C43.7136 153.544 43.4 152.801 43.3927 152.024L41.7084 106.526C41.7093 105.745 42.0201 104.996 42.5727 104.443C43.1252 103.891 43.8744 103.58 44.6558 103.579H152.024C152.801 103.58 153.547 103.887 154.099 104.434C154.651 104.982 154.964 105.725 154.971 106.502L156.656 152C156.655 152.781 156.344 153.53 155.792 154.083C155.239 154.636 154.49 154.946 153.708 154.947ZM42.5506 106.504L44.2348 152C44.2354 152.558 44.4574 153.093 44.8521 153.488C45.2468 153.883 45.7819 154.105 46.34 154.105H153.708C154.263 154.105 154.794 153.886 155.189 153.496C155.583 153.106 155.807 152.576 155.814 152.022L154.129 106.526C154.129 105.968 153.907 105.433 153.512 105.038C153.117 104.644 152.582 104.422 152.024 104.421H44.6558C44.1015 104.422 43.5697 104.641 43.1757 105.03C42.7817 105.42 42.5571 105.95 42.5506 106.504Z" fill="black"/>
<path d="M71.8137 113.474C71.0878 113.474 70.3917 113.762 69.8784 114.275C69.3652 114.788 69.0768 115.485 69.0768 116.21C69.0768 116.936 69.3652 117.632 69.8784 118.146C70.3917 118.659 71.0878 118.947 71.8137 118.947H126.551C127.276 118.947 127.972 118.659 128.486 118.146C128.999 117.632 129.287 116.936 129.287 116.21C129.287 115.485 128.999 114.788 128.486 114.275C127.972 113.762 127.276 113.474 126.551 113.474H71.8137Z" fill="#80ED99"/>
<path d="M71.8137 126.526C71.0878 126.526 70.3917 126.815 69.8784 127.328C69.3652 127.841 69.0768 128.537 69.0768 129.263C69.0768 129.989 69.3652 130.685 69.8784 131.198C70.3917 131.712 71.0878 132 71.8137 132H126.551C127.276 132 127.972 131.712 128.486 131.198C128.999 130.685 129.287 129.989 129.287 129.263C129.287 128.537 128.999 127.841 128.486 127.328C127.972 126.815 127.276 126.526 126.551 126.526H71.8137Z" fill="#80ED99"/>
<path d="M71.8137 139.579C71.0878 139.579 70.3917 139.867 69.8784 140.38C69.3652 140.894 69.0768 141.59 69.0768 142.316C69.0768 143.042 69.3652 143.738 69.8784 144.251C70.3917 144.764 71.0878 145.053 71.8137 145.053H126.551C127.276 145.053 127.972 144.764 128.486 144.251C128.999 143.738 129.287 143.042 129.287 142.316C129.287 141.59 128.999 140.894 128.486 140.38C127.972 139.867 127.276 139.579 126.551 139.579H71.8137Z" fill="#80ED99"/>
<path d="M51.6031 46.5264C50.8773 46.5264 50.1811 46.8147 49.6679 47.328C49.1546 47.8412 48.8663 48.5374 48.8663 49.2632C48.8663 49.9891 49.1546 50.6852 49.6679 51.1984C50.1811 51.7117 50.8773 52.0001 51.6031 52.0001H106.34C107.066 52.0001 107.762 51.7117 108.275 51.1984C108.788 50.6852 109.077 49.9891 109.077 49.2632C109.077 48.5374 108.788 47.8412 108.275 47.328C107.762 46.8147 107.066 46.5264 106.34 46.5264H51.6031Z" fill="#80ED99"/>
<path d="M51.6031 59.5789C50.8773 59.5789 50.1811 59.8672 49.6679 60.3805C49.1546 60.8937 48.8663 61.5898 48.8663 62.3157C48.8663 63.0416 49.1546 63.7377 49.6679 64.2509C50.1811 64.7642 50.8773 65.0525 51.6031 65.0525H106.34C107.066 65.0525 107.762 64.7642 108.275 64.2509C108.788 63.7377 109.077 63.0416 109.077 62.3157C109.077 61.5898 108.788 60.8937 108.275 60.3805C107.762 59.8672 107.066 59.5789 106.34 59.5789H51.6031Z" fill="#80ED99"/>
<path d="M51.6031 72.6316C50.8773 72.6316 50.1811 72.9199 49.6679 73.4332C49.1546 73.9465 48.8663 74.6426 48.8663 75.3684C48.8663 76.0943 49.1546 76.7904 49.6679 77.3037C50.1811 77.8169 50.8773 78.1053 51.6031 78.1053H106.34C107.066 78.1053 107.762 77.8169 108.275 77.3037C108.788 76.7904 109.077 76.0943 109.077 75.3684C109.077 74.6426 108.788 73.9465 108.275 73.4332C107.762 72.9199 107.066 72.6316 106.34 72.6316H51.6031Z" fill="#80ED99"/>
<path d="M59.3926 12.6315C61.718 12.6315 63.6031 10.7464 63.6031 8.42098C63.6031 6.09557 61.718 4.21045 59.3926 4.21045C57.0672 4.21045 55.1821 6.09557 55.1821 8.42098C55.1821 10.7464 57.0672 12.6315 59.3926 12.6315Z" fill="black" fill-opacity="0.1"/>
</g>
<defs>
<clipPath id="clip0_127_928">
<rect width="160.421" height="200" fill="white" transform="translate(0.28949)"/>
</clipPath>
</defs>
</svg>
