<svg width="161" height="200" viewBox="0 0 161 200" fill="none" xmlns="http://www.w3.org/2000/svg">
<g clip-path="url(#clip0_203_34866)">
<path d="M119.026 194.105H8.28891C7.50749 194.104 6.75833 193.794 6.20578 193.241C5.65323 192.688 5.34242 191.939 5.34154 191.158L0.289068 2.95868C0.288306 2.57089 0.363934 2.18675 0.511635 1.82819C0.659335 1.46963 0.876213 1.14367 1.14989 0.868929C1.42356 0.594188 1.74868 0.376046 2.10666 0.226954C2.46465 0.077863 2.84849 0.000742971 3.23628 0H113.973C114.755 0.000875951 115.504 0.311683 116.056 0.864232C116.609 1.41678 116.92 2.16595 116.92 2.94737L117.836 37.0413L116.994 37.0639L116.078 2.95868C116.079 2.68143 116.026 2.40675 115.92 2.15031C115.815 1.89387 115.66 1.6607 115.464 1.46414C115.269 1.26758 115.037 1.11147 114.781 1.00474C114.525 0.898009 114.25 0.842746 113.973 0.842105H3.23628C2.67812 0.842753 2.14302 1.06477 1.74835 1.45944C1.35368 1.85411 1.13166 2.38922 1.13101 2.94737L6.1835 191.147C6.18268 191.424 6.2365 191.699 6.34188 191.955C6.44726 192.211 6.60214 192.445 6.79766 192.641C6.99318 192.838 7.22552 192.994 7.48139 193.101C7.73727 193.207 8.01167 193.263 8.28891 193.263H119.026C119.584 193.263 120.119 193.041 120.514 192.646C120.908 192.251 121.13 191.716 121.131 191.158L120.148 154.538L120.99 154.515L121.973 191.147C121.974 191.534 121.898 191.919 121.75 192.277C121.603 192.636 121.386 192.962 121.112 193.236C120.838 193.511 120.513 193.729 120.155 193.878C119.797 194.027 119.414 194.105 119.026 194.105Z" fill="white" fill-opacity="0.1"/>
<path d="M119.192 87.5677L118.35 87.5903L118.784 103.753L119.625 103.73L119.192 87.5677Z" fill="white" fill-opacity="0.1"/>
<path d="M109.089 177.52H17.3592C16.6927 177.519 16.0538 177.254 15.5825 176.783C15.1112 176.311 14.8462 175.672 14.8454 175.006L10.6602 19.1105C10.6593 18.7797 10.7237 18.4519 10.8496 18.1459C10.9755 17.8399 11.1604 17.5618 11.3938 17.3273C11.6273 17.0928 11.9046 16.9066 12.21 16.7793C12.5154 16.652 12.8429 16.5861 13.1737 16.5854H104.904C105.57 16.5862 106.209 16.8513 106.681 17.3226C107.152 17.7938 107.417 18.4328 107.418 19.0992L108.176 37.0349L107.334 37.0702L106.576 19.1169C106.578 18.8961 106.535 18.6772 106.452 18.4727C106.369 18.2682 106.246 18.0821 106.091 17.9252C105.935 17.7682 105.751 17.6435 105.547 17.5581C105.343 17.4727 105.125 17.4284 104.904 17.4276H13.1737C12.7305 17.4281 12.3057 17.6044 11.9923 17.9178C11.6789 18.2312 11.5026 18.656 11.5021 19.0992L15.6874 174.995C15.6865 175.215 15.729 175.433 15.8126 175.637C15.8962 175.841 16.0191 176.026 16.1744 176.183C16.3296 176.339 16.5142 176.463 16.7175 176.548C16.9208 176.633 17.1389 176.677 17.3592 176.678H109.089C109.533 176.677 109.958 176.501 110.271 176.187C110.584 175.874 110.761 175.449 110.761 175.006L110.219 154.537L111.061 154.515L111.603 174.995C111.604 175.326 111.539 175.653 111.414 175.959C111.288 176.265 111.103 176.543 110.869 176.778C110.636 177.012 110.359 177.199 110.053 177.326C109.748 177.453 109.42 177.519 109.089 177.52Z" fill="white" fill-opacity="0.1"/>
<path d="M109.299 87.9889L108.457 88.0112L108.881 104.011L109.722 103.989L109.299 87.9889Z" fill="white" fill-opacity="0.1"/>
<path d="M133.498 88H26.1296C25.3524 87.9992 24.6069 87.6917 24.0551 87.1444C23.5032 86.597 23.1896 85.8541 23.1824 85.0769L21.498 39.579C21.4989 38.7975 21.8097 38.0484 22.3623 37.4958C22.9148 36.9433 23.664 36.6325 24.4454 36.6316H131.814C132.591 36.6324 133.337 36.9399 133.888 37.4872C134.44 38.0345 134.754 38.7775 134.761 39.5547L136.445 85.0526C136.445 85.8341 136.134 86.5832 135.581 87.1358C135.029 87.6883 134.279 87.9991 133.498 88ZM22.3403 39.5568L24.0244 85.0526C24.025 85.6108 24.247 86.1459 24.6417 86.5406C25.0364 86.9353 25.5715 87.1573 26.1296 87.1579H133.498C134.052 87.1573 134.584 86.9383 134.978 86.5484C135.372 86.1585 135.597 85.6291 135.603 85.0748L133.919 39.579C133.918 39.0208 133.696 38.4857 133.302 38.091C132.907 37.6964 132.372 37.4743 131.814 37.4737H24.4454C23.8911 37.4743 23.3594 37.6933 22.9653 38.0832C22.5713 38.4731 22.3467 39.0025 22.3403 39.5568Z" fill="white" fill-opacity="0.9"/>
<path d="M153.709 154.947H46.3406C45.5633 154.946 44.8178 154.639 44.266 154.092C43.7142 153.544 43.4006 152.801 43.3933 152.024L41.709 106.526C41.7099 105.745 42.0207 104.996 42.5732 104.443C43.1258 103.891 43.8749 103.58 44.6564 103.579H152.025C152.802 103.58 153.548 103.887 154.099 104.434C154.651 104.982 154.965 105.725 154.972 106.502L156.656 152C156.655 152.781 156.345 153.53 155.792 154.083C155.24 154.636 154.49 154.946 153.709 154.947ZM42.5512 106.504L44.2353 152C44.2359 152.558 44.458 153.093 44.8526 153.488C45.2473 153.883 45.7824 154.105 46.3406 154.105H153.709C154.263 154.105 154.795 153.886 155.189 153.496C155.583 153.106 155.808 152.576 155.814 152.022L154.13 106.526C154.129 105.968 153.907 105.433 153.513 105.038C153.118 104.644 152.583 104.422 152.025 104.421H44.6564C44.102 104.422 43.5703 104.641 43.1763 105.03C42.7822 105.42 42.5577 105.95 42.5512 106.504Z" fill="white" fill-opacity="0.9"/>
<path d="M71.813 113.474C71.0872 113.474 70.391 113.762 69.8778 114.275C69.3645 114.788 69.0762 115.485 69.0762 116.21C69.0762 116.936 69.3645 117.632 69.8778 118.146C70.391 118.659 71.0872 118.947 71.813 118.947H126.55C127.276 118.947 127.972 118.659 128.485 118.146C128.998 117.632 129.287 116.936 129.287 116.21C129.287 115.485 128.998 114.788 128.485 114.275C127.972 113.762 127.276 113.474 126.55 113.474H71.813Z" fill="#80ED99"/>
<path d="M71.813 126.526C71.0872 126.526 70.391 126.815 69.8778 127.328C69.3645 127.841 69.0762 128.537 69.0762 129.263C69.0762 129.989 69.3645 130.685 69.8778 131.198C70.391 131.712 71.0872 132 71.813 132H126.55C127.276 132 127.972 131.712 128.485 131.198C128.998 130.685 129.287 129.989 129.287 129.263C129.287 128.537 128.998 127.841 128.485 127.328C127.972 126.815 127.276 126.526 126.55 126.526H71.813Z" fill="#80ED99"/>
<path d="M71.813 139.579C71.0872 139.579 70.391 139.867 69.8778 140.38C69.3645 140.894 69.0762 141.59 69.0762 142.316C69.0762 143.042 69.3645 143.738 69.8778 144.251C70.391 144.764 71.0872 145.053 71.813 145.053H126.55C127.276 145.053 127.972 144.764 128.485 144.251C128.998 143.738 129.287 143.042 129.287 142.316C129.287 141.59 128.998 140.894 128.485 140.38C127.972 139.867 127.276 139.579 126.55 139.579H71.813Z" fill="#80ED99"/>
<path d="M51.6021 46.5264C50.8762 46.5264 50.1801 46.8147 49.6668 47.328C49.1536 47.8412 48.8652 48.5374 48.8652 49.2632C48.8652 49.9891 49.1536 50.6852 49.6668 51.1984C50.1801 51.7117 50.8762 52.0001 51.6021 52.0001H106.339C107.065 52.0001 107.761 51.7117 108.274 51.1984C108.787 50.6852 109.076 49.9891 109.076 49.2632C109.076 48.5374 108.787 47.8412 108.274 47.328C107.761 46.8147 107.065 46.5264 106.339 46.5264H51.6021Z" fill="#80ED99"/>
<path d="M51.6021 59.5789C50.8762 59.5789 50.1801 59.8672 49.6668 60.3805C49.1536 60.8937 48.8652 61.5898 48.8652 62.3157C48.8652 63.0416 49.1536 63.7377 49.6668 64.2509C50.1801 64.7642 50.8762 65.0525 51.6021 65.0525H106.339C107.065 65.0525 107.761 64.7642 108.274 64.2509C108.787 63.7377 109.076 63.0416 109.076 62.3157C109.076 61.5898 108.787 60.8937 108.274 60.3805C107.761 59.8672 107.065 59.5789 106.339 59.5789H51.6021Z" fill="#80ED99"/>
<path d="M51.6021 72.6316C50.8762 72.6316 50.1801 72.9199 49.6668 73.4332C49.1536 73.9465 48.8652 74.6426 48.8652 75.3684C48.8652 76.0943 49.1536 76.7904 49.6668 77.3037C50.1801 77.8169 50.8762 78.1053 51.6021 78.1053H106.339C107.065 78.1053 107.761 77.8169 108.274 77.3037C108.787 76.7904 109.076 76.0943 109.076 75.3684C109.076 74.6426 108.787 73.9465 108.274 73.4332C107.761 72.9199 107.065 72.6316 106.339 72.6316H51.6021Z" fill="#80ED99"/>
<path d="M59.3922 12.6315C61.7176 12.6315 63.6027 10.7464 63.6027 8.42098C63.6027 6.09557 61.7176 4.21045 59.3922 4.21045C57.0668 4.21045 55.1816 6.09557 55.1816 8.42098C55.1816 10.7464 57.0668 12.6315 59.3922 12.6315Z" fill="white" fill-opacity="0.1"/>
</g>
<defs>
<clipPath id="clip0_203_34866">
<rect width="160.421" height="200" fill="white" transform="translate(0.289062)"/>
</clipPath>
</defs>
</svg>
