<svg width="180" height="180" viewBox="0 0 180 180" fill="none" xmlns="http://www.w3.org/2000/svg">
<path d="M135.002 44.9971C110.149 44.9971 90.0078 65.1402 90.0078 89.9936H179.996C179.996 65.1402 159.852 44.9971 135.002 44.9971Z" fill="currentColor"/>
<path fill-rule="evenodd" clip-rule="evenodd" d="M179.999 90.0068C179.999 114.858 159.856 135.003 135.003 135.003C110.29 135.003 90.2317 115.082 90.0078 90.422V180H180.001V90.0068H179.999Z" fill="currentColor"/>
<path d="M44.9976 44.999C20.1432 44.999 0 65.1454 0 89.9966H89.9952C89.9952 65.1454 69.8487 44.999 44.9976 44.999Z" fill="currentColor"/>
<path d="M44.998 135.006C44.998 110.158 24.8538 90.0137 0.00585938 90.0137V179.998C24.8538 179.999 44.998 159.856 44.998 135.006Z" fill="currentColor"/>
</svg>
