<svg width="16" height="16" viewBox="0 0 16 16" fill="none" xmlns="http://www.w3.org/2000/svg">
<mask id="mask0_642_155" style="mask-type:alpha" maskUnits="userSpaceOnUse" x="0" y="0" width="16" height="16">
<rect width="16" height="16" fill="currentColor"/>
</mask>
<g mask="url(#mask0_642_155)">
<path d="M3.89992 11.4C4.46659 10.9667 5.09992 10.625 5.79992 10.375C6.49992 10.125 7.23325 10 7.99992 10C8.76658 10 9.49992 10.125 10.1999 10.375C10.8999 10.625 11.5333 10.9667 12.0999 11.4C12.4888 10.9445 12.7916 10.4278 13.0083 9.85004C13.2249 9.27226 13.3333 8.6556 13.3333 8.00004C13.3333 6.52226 12.8138 5.26393 11.7749 4.22504C10.736 3.18615 9.4777 2.66671 7.99992 2.66671C6.52214 2.66671 5.26381 3.18615 4.22492 4.22504C3.18603 5.26393 2.66659 6.52226 2.66659 8.00004C2.66659 8.6556 2.77492 9.27226 2.99159 9.85004C3.20825 10.4278 3.51103 10.9445 3.89992 11.4ZM7.99992 8.66671C7.34436 8.66671 6.79158 8.44171 6.34159 7.99171C5.89159 7.54171 5.66658 6.98893 5.66658 6.33337C5.66658 5.67782 5.89159 5.12504 6.34159 4.67504C6.79158 4.22504 7.34436 4.00004 7.99992 4.00004C8.65547 4.00004 9.20825 4.22504 9.65825 4.67504C10.1083 5.12504 10.3333 5.67782 10.3333 6.33337C10.3333 6.98893 10.1083 7.54171 9.65825 7.99171C9.20825 8.44171 8.65547 8.66671 7.99992 8.66671ZM7.99992 14.6667C7.0777 14.6667 6.21103 14.4917 5.39992 14.1417C4.58881 13.7917 3.88325 13.3167 3.28325 12.7167C2.68325 12.1167 2.20825 11.4112 1.85825 10.6C1.50825 9.78893 1.33325 8.92226 1.33325 8.00004C1.33325 7.07782 1.50825 6.21115 1.85825 5.40004C2.20825 4.58893 2.68325 3.88337 3.28325 3.28337C3.88325 2.68337 4.58881 2.20837 5.39992 1.85837C6.21103 1.50837 7.0777 1.33337 7.99992 1.33337C8.92214 1.33337 9.78881 1.50837 10.5999 1.85837C11.411 2.20837 12.1166 2.68337 12.7166 3.28337C13.3166 3.88337 13.7916 4.58893 14.1416 5.40004C14.4916 6.21115 14.6666 7.07782 14.6666 8.00004C14.6666 8.92226 14.4916 9.78893 14.1416 10.6C13.7916 11.4112 13.3166 12.1167 12.7166 12.7167C12.1166 13.3167 11.411 13.7917 10.5999 14.1417C9.78881 14.4917 8.92214 14.6667 7.99992 14.6667ZM7.99992 13.3334C8.58881 13.3334 9.14436 13.2473 9.66658 13.075C10.1888 12.9028 10.6666 12.6556 11.0999 12.3334C10.6666 12.0112 10.1888 11.7639 9.66658 11.5917C9.14436 11.4195 8.58881 11.3334 7.99992 11.3334C7.41103 11.3334 6.85547 11.4195 6.33325 11.5917C5.81103 11.7639 5.33325 12.0112 4.89992 12.3334C5.33325 12.6556 5.81103 12.9028 6.33325 13.075C6.85547 13.2473 7.41103 13.3334 7.99992 13.3334ZM7.99992 7.33337C8.28881 7.33337 8.5277 7.23893 8.71658 7.05004C8.90547 6.86115 8.99992 6.62226 8.99992 6.33337C8.99992 6.04448 8.90547 5.8056 8.71658 5.61671C8.5277 5.42782 8.28881 5.33337 7.99992 5.33337C7.71103 5.33337 7.47214 5.42782 7.28325 5.61671C7.09436 5.8056 6.99992 6.04448 6.99992 6.33337C6.99992 6.62226 7.09436 6.86115 7.28325 7.05004C7.47214 7.23893 7.71103 7.33337 7.99992 7.33337Z" fill="currentColor" />
</g>
</svg>
