<svg width="179" height="24" viewBox="0 0 179 24" fill="none" xmlns="http://www.w3.org/2000/svg">
<path d="M0.625 18.2857V16.3326L2.35491 15.9977V4.33482L0.625 4V2.03571H13.5602V6.48883H11.0603L10.9152 4.54688H5.61384V9.02232H11.3058V11.5335H5.61384V15.9977L7.35491 16.3326V18.2857H0.625ZM14.788 18.2857V16.3326L16.3504 15.9977V8.50893L14.6206 8.1741V6.20982H19.3862L19.5089 7.70536L19.5312 7.97321C19.8289 7.31846 20.1971 6.82366 20.6361 6.48883C21.0752 6.15402 21.5997 5.98661 22.2098 5.98661C22.4033 5.98661 22.6153 6.00521 22.8459 6.04241C23.0767 6.07217 23.2813 6.1131 23.4598 6.16518L23.1138 9.16741L21.4955 9.07812C21.0342 9.05581 20.6585 9.13393 20.3683 9.3125C20.0856 9.49107 19.8326 9.74777 19.6094 10.0826V15.9977L21.1719 16.3326V18.2857H14.788ZM29.9888 18.5201C28.8355 18.5201 27.8274 18.2671 26.9643 17.7611C26.1011 17.2478 25.4315 16.5447 24.9553 15.6518C24.4866 14.759 24.2522 13.7395 24.2522 12.5937V12.1473C24.2522 10.9494 24.4754 9.88913 24.9218 8.96651C25.3683 8.03646 25.997 7.30729 26.808 6.77902C27.6265 6.2433 28.5901 5.97917 29.6986 5.98661C30.7925 5.98661 31.7113 6.20238 32.4553 6.63393C33.1994 7.06547 33.7649 7.68675 34.1518 8.49777C34.5387 9.30878 34.7321 10.2909 34.7321 11.4442V13.2187H27.6339L27.6117 13.2857C27.6562 13.8139 27.7865 14.2865 28.0023 14.7031C28.2255 15.1123 28.5379 15.436 28.9398 15.6741C29.3415 15.9048 29.8289 16.0201 30.4018 16.0201C30.997 16.0201 31.5513 15.9457 32.0647 15.7969C32.5856 15.6406 33.0915 15.4137 33.5826 15.1161L34.4642 17.125C33.9658 17.5267 33.337 17.8616 32.5782 18.1295C31.8266 18.3898 30.9635 18.5201 29.9888 18.5201ZM27.6562 11.0647H31.6853V10.7745C31.6853 10.2835 31.6183 9.8631 31.4843 9.51339C31.3579 9.15625 31.1496 8.88095 30.8594 8.6875C30.5767 8.49405 30.2083 8.39733 29.7545 8.39733C29.323 8.39733 28.9583 8.51265 28.6607 8.7433C28.3631 8.96651 28.1287 9.2753 27.9576 9.66965C27.7939 10.064 27.6823 10.5104 27.6227 11.0089L27.6562 11.0647ZM42.0647 18.5201C40.9114 18.5201 39.9033 18.2671 39.0402 17.7611C38.177 17.2478 37.5074 16.5447 37.0312 15.6518C36.5625 14.759 36.3281 13.7395 36.3281 12.5937V12.1473C36.3281 10.9494 36.5513 9.88913 36.9977 8.96651C37.4442 8.03646 38.0729 7.30729 38.8839 6.77902C39.7024 6.2433 40.6659 5.97917 41.7745 5.98661C42.8683 5.98661 43.7872 6.20238 44.5312 6.63393C45.2753 7.06547 45.8408 7.68675 46.2277 8.49777C46.6146 9.30878 46.808 10.2909 46.808 11.4442V13.2187H39.7098L39.6875 13.2857C39.7321 13.8139 39.8624 14.2865 40.0782 14.7031C40.3014 15.1123 40.6138 15.436 41.0157 15.6741C41.4174 15.9048 41.9048 16.0201 42.4777 16.0201C43.0729 16.0201 43.6272 15.9457 44.1406 15.7969C44.6615 15.6406 45.1674 15.4137 45.6585 15.1161L46.5402 17.125C46.0417 17.5267 45.4129 17.8616 44.6541 18.1295C43.9025 18.3898 43.0394 18.5201 42.0647 18.5201ZM39.7321 11.0647H43.7611V10.7745C43.7611 10.2835 43.6942 9.8631 43.5602 9.51339C43.4338 9.15625 43.2255 8.88095 42.9353 8.6875C42.6526 8.49405 42.2842 8.39733 41.8304 8.39733C41.3989 8.39733 41.0342 8.51265 40.7366 8.7433C40.439 8.96651 40.2046 9.2753 40.0335 9.66965C39.8698 10.064 39.7582 10.5104 39.6986 11.0089L39.7321 11.0647ZM52.9576 18.5201C51.9977 18.5201 51.1719 18.2745 50.4799 17.7834C49.7954 17.2849 49.2709 16.593 48.9063 15.7075C48.5417 14.8147 48.3594 13.773 48.3594 12.5826V12.3482C48.3594 11.0759 48.5417 9.96354 48.9063 9.01116C49.2783 8.05878 49.8065 7.31846 50.4911 6.79018C51.1755 6.25447 51.9941 5.98661 52.9464 5.98661C53.6087 5.98661 54.189 6.12054 54.6875 6.38839C55.1861 6.64881 55.6176 7.02083 55.9822 7.50447V3.1741L54.241 2.83929V0.875H55.9822H59.241V15.9977L60.8035 16.3326V18.2857H56.4174L56.1719 16.8125C55.7925 17.3705 55.3385 17.7946 54.8103 18.0848C54.2895 18.375 53.6719 18.5201 52.9576 18.5201ZM53.9286 15.9866C54.3824 15.9866 54.7805 15.8898 55.1227 15.6965C55.465 15.503 55.7515 15.224 55.9822 14.8594V9.73661C55.759 9.3497 55.4762 9.05208 55.1339 8.84375C54.7917 8.62798 54.3974 8.52009 53.9509 8.52009C53.4078 8.52009 52.9613 8.68378 52.6117 9.01116C52.2694 9.3311 52.0163 9.77753 51.8527 10.3504C51.6965 10.9234 51.6183 11.5893 51.6183 12.3482V12.5826C51.6183 13.6391 51.7969 14.4725 52.1541 15.0826C52.5112 15.6853 53.1026 15.9866 53.9286 15.9866ZM67.5782 18.5201C66.3877 18.5201 65.3646 18.2597 64.5089 17.7389C63.6533 17.2181 62.9985 16.4962 62.5447 15.5737C62.0907 14.6437 61.8639 13.5759 61.8639 12.3705V12.1361C61.8639 10.9382 62.0907 9.87798 62.5447 8.95536C62.9985 8.0253 63.6496 7.29985 64.4977 6.77902C65.3534 6.25074 66.3728 5.98661 67.5558 5.98661C68.7537 5.98661 69.7768 6.25074 70.625 6.77902C71.4733 7.29985 72.1242 8.02158 72.5782 8.94419C73.032 9.86681 73.259 10.9308 73.259 12.1361V12.3705C73.259 13.5759 73.032 14.6437 72.5782 15.5737C72.1242 16.4962 71.4733 17.2181 70.625 17.7389C69.7768 18.2597 68.7611 18.5201 67.5782 18.5201ZM67.5782 16.0201C68.1437 16.0201 68.6049 15.8675 68.9621 15.5625C69.3192 15.2575 69.5833 14.8334 69.7545 14.2902C69.9256 13.7395 70.0112 13.0997 70.0112 12.3705V12.1361C70.0112 11.4219 69.9256 10.7932 69.7545 10.25C69.5833 9.6994 69.3154 9.27158 68.9509 8.96651C68.5937 8.65402 68.1287 8.49777 67.5558 8.49777C66.9977 8.49777 66.5365 8.65402 66.1719 8.96651C65.8073 9.27158 65.5394 9.6994 65.3683 10.25C65.2046 10.7932 65.1227 11.4219 65.1227 12.1361V12.3705C65.1227 13.0997 65.2046 13.7395 65.3683 14.2902C65.5394 14.8408 65.8073 15.2686 66.1719 15.5737C66.5365 15.8713 67.0053 16.0201 67.5782 16.0201ZM74.5982 18.2857V16.3326L76.1719 15.9977V8.50893L74.4309 8.1741V6.20982H79.1965L79.3304 7.80581C79.7173 7.22545 80.2009 6.77902 80.7813 6.46651C81.369 6.14658 82.0462 5.98661 82.8125 5.98661C83.5863 5.98661 84.2485 6.15774 84.7991 6.5C85.3571 6.84226 85.7738 7.35937 86.0491 8.05134C86.4211 7.40402 86.9048 6.89807 87.5 6.53349C88.0952 6.1689 88.7946 5.98661 89.5982 5.98661C90.7887 5.98661 91.7262 6.39211 92.4107 7.20312C93.1026 8.01414 93.4487 9.24926 93.4487 10.9085V15.9977L95.0223 16.3326V18.2857H88.7834V16.3326L90.1897 15.9977V10.8973C90.1897 10.0045 90.0409 9.3869 89.7433 9.04464C89.4531 8.69494 89.029 8.52009 88.471 8.52009C87.965 8.52009 87.5373 8.66518 87.1875 8.95536C86.8378 9.23809 86.5848 9.61384 86.4286 10.0826V15.9977L87.7455 16.3326V18.2857H81.8639V16.3326L83.1808 15.9977V10.8973C83.1808 10.0268 83.032 9.41295 82.7344 9.05581C82.4442 8.69866 82.0127 8.52009 81.4398 8.52009C80.9784 8.52009 80.5803 8.6131 80.2455 8.79911C79.9107 8.98512 79.6354 9.25297 79.4197 9.60267V15.9977L80.826 16.3326V18.2857H74.5982ZM100.469 18.5201C99.3453 18.5201 98.4784 18.2113 97.8684 17.5937C97.2656 16.9762 96.9643 15.9977 96.9643 14.6585V8.49777H95.3014V6.20982H96.9643V3.25223H100.212V6.20982H102.433V8.49777H100.212V14.6473C100.212 15.1161 100.309 15.4509 100.502 15.6518C100.703 15.8527 100.975 15.9531 101.317 15.9531C101.503 15.9531 101.696 15.9419 101.897 15.9197C102.106 15.8898 102.284 15.8601 102.433 15.8304L102.712 18.1853C102.377 18.2819 102.013 18.3601 101.618 18.4197C101.231 18.4866 100.848 18.5201 100.469 18.5201ZM109.431 18.5201C108.24 18.5201 107.217 18.2597 106.362 17.7389C105.506 17.2181 104.851 16.4962 104.397 15.5737C103.943 14.6437 103.717 13.5759 103.717 12.3705V12.1361C103.717 10.9382 103.943 9.87798 104.397 8.95536C104.851 8.0253 105.502 7.29985 106.35 6.77902C107.206 6.25074 108.225 5.98661 109.408 5.98661C110.606 5.98661 111.629 6.25074 112.478 6.77902C113.326 7.29985 113.977 8.02158 114.431 8.94419C114.885 9.86681 115.112 10.9308 115.112 12.1361V12.3705C115.112 13.5759 114.885 14.6437 114.431 15.5737C113.977 16.4962 113.326 17.2181 112.478 17.7389C111.629 18.2597 110.614 18.5201 109.431 18.5201ZM109.431 16.0201C109.996 16.0201 110.458 15.8675 110.815 15.5625C111.172 15.2575 111.436 14.8334 111.607 14.2902C111.778 13.7395 111.864 13.0997 111.864 12.3705V12.1361C111.864 11.4219 111.778 10.7932 111.607 10.25C111.436 9.6994 111.168 9.27158 110.804 8.96651C110.446 8.65402 109.981 8.49777 109.408 8.49777C108.85 8.49777 108.389 8.65402 108.025 8.96651C107.66 9.27158 107.392 9.6994 107.221 10.25C107.057 10.7932 106.975 11.4219 106.975 12.1361V12.3705C106.975 13.0997 107.057 13.7395 107.221 14.2902C107.392 14.8408 107.66 15.2686 108.025 15.5737C108.389 15.8713 108.858 16.0201 109.431 16.0201ZM122.466 18.5201C121.277 18.5201 120.253 18.2597 119.398 17.7389C118.542 17.2181 117.887 16.4962 117.433 15.5737C116.979 14.6437 116.752 13.5759 116.752 12.3705V12.1361C116.752 10.9382 116.979 9.87798 117.433 8.95536C117.887 8.0253 118.538 7.29985 119.386 6.77902C120.242 6.25074 121.262 5.98661 122.445 5.98661C123.642 5.98661 124.665 6.25074 125.513 6.77902C126.361 7.29985 127.013 8.02158 127.466 8.94419C127.92 9.86681 128.147 10.9308 128.147 12.1361V12.3705C128.147 13.5759 127.92 14.6437 127.466 15.5737C127.013 16.4962 126.361 17.2181 125.513 17.7389C124.665 18.2597 123.649 18.5201 122.466 18.5201ZM122.466 16.0201C123.032 16.0201 123.494 15.8675 123.85 15.5625C124.208 15.2575 124.472 14.8334 124.642 14.2902C124.814 13.7395 124.899 13.0997 124.899 12.3705V12.1361C124.899 11.4219 124.814 10.7932 124.642 10.25C124.472 9.6994 124.203 9.27158 123.839 8.96651C123.482 8.65402 123.017 8.49777 122.445 8.49777C121.886 8.49777 121.425 8.65402 121.061 8.96651C120.696 9.27158 120.427 9.6994 120.257 10.25C120.093 10.7932 120.011 11.4219 120.011 12.1361V12.3705C120.011 13.0997 120.093 13.7395 120.257 14.2902C120.427 14.8408 120.696 15.2686 121.061 15.5737C121.425 15.8713 121.894 16.0201 122.466 16.0201ZM129.208 18.2857V16.3326L130.782 15.9977V3.1741L129.04 2.83929V0.875H134.04V15.9977L135.614 16.3326V18.2857H129.208ZM137.422 18.2857V15.4286H140.67V18.2857H137.422ZM148.27 18.5201C147.08 18.5201 146.056 18.2597 145.201 17.7389C144.345 17.2181 143.69 16.4962 143.237 15.5737C142.783 14.6437 142.555 13.5759 142.555 12.3705V12.1361C142.555 10.9382 142.783 9.87798 143.237 8.95536C143.69 8.0253 144.342 7.29985 145.19 6.77902C146.046 6.25074 147.065 5.98661 148.248 5.98661C149.446 5.98661 150.469 6.25074 151.317 6.77902C152.166 7.29985 152.816 8.02158 153.27 8.94419C153.723 9.86681 153.951 10.9308 153.951 12.1361V12.3705C153.951 13.5759 153.723 14.6437 153.27 15.5737C152.816 16.4962 152.166 17.2181 151.317 17.7389C150.469 18.2597 149.453 18.5201 148.27 18.5201ZM148.27 16.0201C148.835 16.0201 149.297 15.8675 149.654 15.5625C150.011 15.2575 150.275 14.8334 150.447 14.2902C150.617 13.7395 150.703 13.0997 150.703 12.3705V12.1361C150.703 11.4219 150.617 10.7932 150.447 10.25C150.275 9.6994 150.008 9.27158 149.643 8.96651C149.286 8.65402 148.821 8.49777 148.248 8.49777C147.69 8.49777 147.229 8.65402 146.864 8.96651C146.499 9.27158 146.231 9.6994 146.061 10.25C145.897 10.7932 145.815 11.4219 145.815 12.1361V12.3705C145.815 13.0997 145.897 13.7395 146.061 14.2902C146.231 14.8408 146.499 15.2686 146.864 15.5737C147.229 15.8713 147.697 16.0201 148.27 16.0201ZM155.658 18.2857V16.3326L157.221 15.9977V8.50893L155.491 8.1741V6.20982H160.257L160.379 7.70536L160.402 7.97321C160.699 7.31846 161.067 6.82366 161.506 6.48883C161.945 6.15402 162.47 5.98661 163.08 5.98661C163.274 5.98661 163.486 6.00521 163.717 6.04241C163.947 6.07217 164.152 6.1131 164.33 6.16518L163.984 9.16741L162.366 9.07812C161.905 9.05581 161.529 9.13393 161.239 9.3125C160.957 9.49107 160.703 9.74777 160.48 10.0826V15.9977L162.042 16.3326V18.2857H155.658ZM170.402 23.163C169.792 23.163 169.107 23.0848 168.349 22.9286C167.59 22.7723 166.92 22.5491 166.339 22.259L166.942 19.9375C167.463 20.1607 168.014 20.3355 168.594 20.4621C169.182 20.596 169.728 20.663 170.234 20.663C171.105 20.663 171.741 20.4211 172.143 19.9375C172.552 19.4538 172.757 18.7805 172.757 17.9174V17.125C172.4 17.5789 171.979 17.9248 171.496 18.163C171.011 18.401 170.457 18.5201 169.833 18.5201C168.85 18.5201 168.006 18.2745 167.299 17.7834C166.592 17.2849 166.053 16.5893 165.681 15.6965C165.309 14.8035 165.122 13.7656 165.122 12.5826V12.3482C165.122 11.0759 165.309 9.96354 165.681 9.01116C166.053 8.05878 166.585 7.31846 167.277 6.79018C167.969 6.25447 168.799 5.98661 169.766 5.98661C170.487 5.98661 171.109 6.13913 171.63 6.44419C172.151 6.74182 172.593 7.16965 172.958 7.72768L173.192 6.20982H176.026V17.9286C176.026 18.9926 175.8 19.9152 175.346 20.6965C174.899 21.4777 174.256 22.0841 173.415 22.5157C172.575 22.9472 171.57 23.163 170.402 23.163ZM170.747 15.9866C171.209 15.9866 171.607 15.8974 171.942 15.7187C172.277 15.5327 172.549 15.2649 172.757 14.9152V9.66965C172.549 9.30506 172.273 9.02232 171.93 8.82143C171.595 8.62054 171.206 8.52009 170.759 8.52009C170.201 8.52009 169.747 8.68378 169.398 9.01116C169.048 9.3311 168.791 9.77753 168.627 10.3504C168.464 10.9159 168.382 11.5818 168.382 12.3482V12.5826C168.382 13.6391 168.563 14.4725 168.928 15.0826C169.294 15.6853 169.899 15.9866 170.747 15.9866ZM175.614 8.56473L174.197 6.20982H177.445V8.1741L175.614 8.56473Z" fill="currentColor"/>
</svg>
