<svg width="20" height="20" viewBox="0 0 20 20" fill="none" xmlns="http://www.w3.org/2000/svg">
<path d="M9.68745 6.0185C8.95745 6.0185 7.82745 5.1885 6.63745 5.2185C5.06745 5.2385 3.62745 6.1285 2.81745 7.5385C1.18745 10.3685 2.39745 14.5485 3.98745 16.8485C4.76745 17.9685 5.68745 19.2285 6.90745 19.1885C8.07745 19.1385 8.51745 18.4285 9.93745 18.4285C11.3474 18.4285 11.7474 19.1885 12.9874 19.1585C14.2474 19.1385 15.0474 18.0185 15.8174 16.8885C16.7074 15.5885 17.0774 14.3285 17.0975 14.2585C17.0675 14.2485 14.6475 13.3185 14.6175 10.5185C14.5975 8.1785 16.5274 7.0585 16.6174 7.0085C15.5175 5.3985 13.8274 5.2185 13.2374 5.1785C11.6974 5.0585 10.4074 6.0185 9.68745 6.0185ZM12.2874 3.6585C12.9375 2.8785 13.3674 1.7885 13.2474 0.708496C12.3174 0.748496 11.1974 1.3285 10.5274 2.1085C9.92745 2.7985 9.40745 3.9085 9.54745 4.9685C10.5774 5.0485 11.6375 4.4385 12.2874 3.6585Z" fill="currentColor" />
</svg>
