<svg width="12" height="12" viewBox="0 0 12 12" fill="none" xmlns="http://www.w3.org/2000/svg">
    <path d="M6.36625 4.87787L8.89535 7.40697C8.93023 7.44185 8.95639 7.47964 8.97384 7.52034C8.99128 7.56104 9 7.60465 9 7.65116C9 7.74418 8.96802 7.82558 8.90407 7.89535C8.84011 7.96512 8.75581 8 8.65116 8L3.34877 8C3.24412 8 3.15981 7.96512 3.09586 7.89535C3.0319 7.82558 2.99993 7.74418 2.99993 7.65116C2.99993 7.6279 3.03481 7.54651 3.10458 7.40697L5.63368 4.87787C5.69182 4.81973 5.74996 4.77903 5.8081 4.75577C5.86624 4.73252 5.93019 4.72089 5.99996 4.72089C6.06973 4.72089 6.13369 4.73252 6.19183 4.75577C6.24997 4.77903 6.30811 4.81973 6.36625 4.87787Z"
          fill="currentColor"/>
</svg>
