<svg width="12" height="12" viewBox="0 0 12 12" fill="none" xmlns="http://www.w3.org/2000/svg">
    <path d="M5.63375 7.65729L3.10465 5.12819C3.06977 5.0933 3.04361 5.05551 3.02616 5.01481C3.00872 4.97412 3 4.93051 3 4.884C3 4.79097 3.03198 4.70958 3.09593 4.63981C3.15989 4.57004 3.24419 4.53516 3.34884 4.53516H8.65123C8.75588 4.53516 8.84019 4.57004 8.90414 4.63981C8.9681 4.70958 9.00007 4.79097 9.00007 4.884C9.00007 4.90725 8.96519 4.98865 8.89542 5.12819L6.36632 7.65729C6.30818 7.71543 6.25004 7.75613 6.1919 7.77938C6.13376 7.80264 6.0698 7.81427 6.00004 7.81427C5.93027 7.81427 5.86631 7.80264 5.80817 7.77938C5.75003 7.75613 5.69189 7.71543 5.63375 7.65729Z"
          fill="currentColor"/>
</svg>
