<svg width="20" height="20" viewBox="0 0 20 20" fill="none" xmlns="http://www.w3.org/2000/svg">
<g id="icons/arrow-down-circle-line">
<path id="Vector" d="M10.0001 1.66699C14.6001 1.66699 18.3334 5.40033 18.3334 10.0003C18.3334 14.6003 14.6001 18.3337 10.0001 18.3337C5.40008 18.3337 1.66675 14.6003 1.66675 10.0003C1.66675 5.40033 5.40008 1.66699 10.0001 1.66699ZM10.0001 16.667C13.6834 16.667 16.6667 13.6837 16.6667 10.0003C16.6667 6.31699 13.6834 3.33366 10.0001 3.33366C6.31675 3.33366 3.33341 6.31699 3.33341 10.0003C3.33341 13.6837 6.31675 16.667 10.0001 16.667ZM10.8334 10.0003H13.3334L10.0001 13.3337L6.66675 10.0003H9.16675V6.66699H10.8334V10.0003Z" fill="currentColor" />
</g>
</svg>
