<svg width="24" height="24" viewBox="0 0 24 24" fill="none" xmlns="http://www.w3.org/2000/svg">
<g clip-path="url(#clip0_1299_971)">
<path d="M23.64 14.9031C22.0372 21.3317 15.5257 25.2437 9.09637 23.641C2.66999 22.0382 -1.24238 15.5267 0.360743 9.09847C1.96274 2.6691 8.47387 -1.24365 14.9014 0.359098C21.3304 1.96185 25.2427 8.4741 23.64 14.9031Z" fill="#F7931A"/>
<path d="M17.291 10.2903C17.5295 8.69353 16.3137 7.83515 14.6513 7.26253L15.1906 5.09953L13.8736 4.7714L13.3486 6.8774C13.0028 6.79115 12.6473 6.70978 12.2941 6.62915L12.8228 4.50928L11.507 4.18115L10.9673 6.3434C10.6808 6.27815 10.3996 6.21365 10.1266 6.14578L10.1281 6.13903L8.31233 5.68565L7.96208 7.0919C7.96208 7.0919 8.93896 7.31578 8.91833 7.32965C9.45158 7.46278 9.54833 7.81565 9.53183 8.0954L8.91758 10.5595C8.95433 10.5689 9.00196 10.5824 9.05446 10.6034L8.91571 10.5689L8.05433 14.0208C7.98908 14.1828 7.82371 14.4258 7.45096 14.3335C7.46408 14.3527 6.49396 14.0947 6.49396 14.0947L5.84033 15.6022L7.55408 16.0293C7.87283 16.1092 8.18521 16.1928 8.49233 16.2715L7.94746 18.4597L9.26258 18.7878L9.80258 16.6233C10.1615 16.7208 10.5102 16.8108 10.8515 16.8955L10.3137 19.0499L11.6303 19.378L12.1752 17.1944C14.4203 17.6193 16.109 17.4479 16.8188 15.4177C17.3915 13.7827 16.7907 12.8395 15.6095 12.2242C16.4697 12.025 17.1181 11.4592 17.291 10.2903ZM14.2823 14.5087C13.8751 16.1437 11.1226 15.2602 10.2297 15.0382L10.9527 12.1398C11.8452 12.3625 14.7065 12.8035 14.2823 14.5087ZM14.6892 10.2667C14.318 11.7539 12.0267 10.9983 11.2831 10.813L11.9386 8.18428C12.6822 8.36953 15.0762 8.71528 14.6892 10.2667Z" fill="white"/>
</g>
<defs>
<clipPath id="clip0_1299_971">
<rect width="24" height="24" fill="white"/>
</clipPath>
</defs>
</svg>
