<svg width="40" height="40" viewBox="0 0 40 40" fill="none" xmlns="http://www.w3.org/2000/svg">
<path d="M11.6662 11.6667V4.99999C11.6662 4.07953 12.4124 3.33333 13.3329 3.33333H34.9996C35.9201 3.33333 36.6663 4.07953 36.6663 4.99999V26.6667C36.6663 27.5872 35.9201 28.3333 34.9996 28.3333H28.3333V34.9875C28.3333 35.9148 27.5849 36.6667 26.6541 36.6667H5.01205C4.08469 36.6667 3.33325 35.9185 3.33325 34.9875L3.33785 13.3458C3.33805 12.4184 4.08625 11.6667 5.017 11.6667H11.6662ZM14.9996 11.6667H26.6544C27.5816 11.6667 28.3333 12.4149 28.3333 13.3458V25H33.3329V6.66666H14.9996V11.6667ZM14.1706 30L23.5988 20.5718L21.2418 18.2148L14.1706 25.286L10.6351 21.7505L8.27807 24.1075L14.1706 30Z" fill="currentColor"/>
</svg>
