<svg width="72" height="72" viewBox="0 0 72 72" fill="none" xmlns="http://www.w3.org/2000/svg">
<path d="M36.0003 0C45.0774 0 50.7506 10.0529 46.2118 18.095L36.0003 36.19L25.7887 18.095C21.2503 10.0529 26.9234 0 36.0003 0Z" fill="currentColor"/>
<path d="M36.0004 72.0005C26.9235 72.0005 21.2501 61.9476 25.7888 53.9055L36.0004 35.8105L46.2119 53.9055C50.7507 61.9476 45.0776 72.0005 36.0004 72.0005Z" fill="currentColor"/>
<path d="M71.198 35.9914C71.198 45.2779 61.3719 51.0819 53.511 46.4388L35.824 35.9917L53.511 25.5446C61.3719 20.9009 71.198 26.7049 71.198 35.9914Z" fill="currentColor"/>
<path d="M0.821045 35.9915C0.821045 26.705 10.6472 20.9011 18.5081 25.5445L36.1952 35.9915L18.5081 46.4386C10.6472 51.082 0.821045 45.2777 0.821045 35.9915Z" fill="currentColor"/>
</svg>
