<svg width="24" height="24" viewBox="0 0 24 24" fill="none" xmlns="http://www.w3.org/2000/svg">
  <path
    d="M12.0049 4.00269C18.08 4.00269 23.0049 6.68898 23.0049 10.0026V14.0026C23.0049 17.3164 18.08 20.0026 12.0049 20.0026C6.03824 20.0026 1.18114 17.4114 1.00957 14.1796L1.00488 14.0026V10.0026C1.00488 6.68898 5.92975 4.00269 12.0049 4.00269ZM12.0049 16.0026C8.28443 16.0026 4.99537 14.9952 3.00466 13.4531L3.00488 14.0026C3.00488 15.8848 6.88751 18.0026 12.0049 18.0026C17.0156 18.0026 20.8426 15.9722 20.9999 14.1206L21.0049 14.0026L21.0061 13.4523C19.0155 14.9948 15.726 16.0026 12.0049 16.0026ZM12.0049 6.00269C6.88751 6.00269 3.00488 8.12048 3.00488 10.0026C3.00488 11.8848 6.88751 14.0026 12.0049 14.0026C17.1223 14.0026 21.0049 11.8848 21.0049 10.0026C21.0049 8.12048 17.1223 6.00269 12.0049 6.00269Z"
    fill="currentColor"/>
</svg>
