<svg width="48" height="48" viewBox="0 0 48 48" fill="none" xmlns="http://www.w3.org/2000/svg">
    <rect width="48" height="48" rx="24" fill="currentColor"/>
    <path d="M24.0011 24.3228C28.4265 24.3228 32.014 20.5722 32.014 15.9456C32.014 11.319 28.4265 7.56836 24.0011 7.56836C19.5758 7.56836 15.9883 11.319 15.9883 15.9456C15.9883 20.5722 19.5758 24.3228 24.0011 24.3228Z"
          fill="white"/>
    <path d="M37.5 35.7109C37.343 35.8966 37.1822 36.0792 37.0181 36.2582C33.7369 39.839 29.1175 42.0683 24 42.0683C18.8825 42.0683 14.2631 39.839 10.9819 36.2582C10.8178 36.0792 10.6571 35.8966 10.5 35.7109C12.9148 30.4575 18.0525 26.8311 24 26.8311C29.9475 26.8311 35.0853 30.4576 37.5 35.7109Z"
          fill="white"/>
</svg>
