<svg width="20" height="20" viewBox="0 0 20 20" fill="none" xmlns="http://www.w3.org/2000/svg">
<path d="M7.10084 11.5386C6.23415 11.5386 5.52665 10.7516 5.52665 9.78761C5.52665 8.8237 6.21646 8.03654 7.10084 8.03654C7.97635 8.03654 8.69266 8.8237 8.67499 9.78761C8.67499 10.7516 7.97635 11.5386 7.10084 11.5386ZM12.9121 11.5386C12.0453 11.5386 11.337 10.7516 11.337 9.78761C11.337 8.8237 12.0277 8.03654 12.9121 8.03654C13.7876 8.03654 14.5039 8.8237 14.4862 9.78761C14.4862 10.7516 13.7964 11.5386 12.9121 11.5386ZM8.43808 3.60291L8.18079 3.13379L7.65302 3.22175C6.43295 3.4251 5.27248 3.78942 4.18819 4.28881L3.99742 4.37668L3.87955 4.55052C1.70183 7.76246 1.10516 10.9244 1.4006 14.0306L1.4328 14.3692L1.70793 14.5691C3.15742 15.6225 4.56214 16.2662 5.93972 16.6885L6.59747 16.8901L7.52544 14.6259C9.11674 15.0193 10.883 15.0194 12.4745 14.6264L13.3967 16.8907L14.056 16.6884C15.4314 16.2665 16.8451 15.6231 18.2892 14.568L18.5608 14.3696L18.5946 14.0349C18.9579 10.4349 18.0137 7.29856 16.1292 4.54755L16.011 4.37498L15.8208 4.28798C14.7309 3.78949 13.5713 3.42529 12.3594 3.22189L11.8447 3.13551L11.5826 3.58686C11.5097 3.71249 11.4349 3.85431 11.364 3.99784C10.4537 3.90436 9.54699 3.90416 8.64416 3.99755C8.57383 3.85658 8.50241 3.72028 8.43808 3.60291ZM5.59563 13.8423C5.76062 13.9374 5.93344 14.0303 6.10497 14.1155L5.73066 15.0288C4.79687 14.6887 3.84897 14.2202 2.87333 13.5469C2.68627 10.9319 3.21776 8.29295 5.01029 5.57233C5.75834 5.24314 6.54491 4.98611 7.36371 4.81124C7.41392 4.91571 7.46062 5.01766 7.49899 5.10809L7.72639 5.6441L8.30249 5.5596C9.42966 5.39428 10.5647 5.39406 11.7106 5.55981L12.2857 5.643L12.5126 5.10809C12.5521 5.01497 12.5976 4.91334 12.6456 4.81146C13.4607 4.9865 14.2487 5.24388 15.0027 5.57388C16.5654 7.92426 17.3537 10.5458 17.1242 13.5464C16.1534 14.2192 15.2022 14.6879 14.2664 15.0284L13.8949 14.1163C14.0669 14.0309 14.2402 13.9376 14.4057 13.8423C14.8139 13.6071 15.2536 13.3138 15.5338 13.0335L14.4675 11.9673C14.3311 12.1037 14.0312 12.3178 13.6529 12.5357C13.2827 12.749 12.9153 12.9214 12.6807 12.999C11.0108 13.5511 8.99058 13.5511 7.32069 12.999C7.08604 12.9214 6.7187 12.749 6.34843 12.5357C5.97019 12.3178 5.67026 12.1037 5.5338 11.9673L4.46754 13.0335C4.74774 13.3138 5.18741 13.6071 5.59563 13.8423Z" fill="currentColor"/>
</svg>
