<svg width="25" height="24" viewBox="0 0 25 24" fill="none" xmlns="http://www.w3.org/2000/svg">
  <rect x="4" y="2" width="16" height="16" fill="#ffff"/>
  <g clip-path="url(#clip0_7494_10729)">
    <path d="M19.6343 1.00146H4.918C3.67694 1.00146 2.6665 2.01182 2.6665 3.26385V18.112C2.6665 19.3641 3.67686 20.3744 4.91793 20.3744H17.372L16.7898 18.3427L18.1956 19.6496L19.5244 20.8796L21.8857 22.9662V3.26385C21.8857 2.01182 20.8753 1.00146 19.6343 1.00146ZM15.3951 15.3445C15.3951 15.3445 14.9998 14.8722 14.6702 14.4549C16.109 14.0485 16.6581 13.148 16.6581 13.148C16.2078 13.4445 15.7795 13.6533 15.3951 13.7959C14.846 14.0266 14.3188 14.1803 13.8027 14.2682C12.7483 14.4659 11.7819 14.411 10.9582 14.2572C10.3322 14.1364 9.79405 13.9607 9.34382 13.785C9.0912 13.6861 8.81665 13.5653 8.54202 13.4116C8.50914 13.3896 8.47618 13.3786 8.44322 13.3566C8.4213 13.3457 8.41027 13.3347 8.39931 13.3238C8.20163 13.2139 8.0918 13.137 8.0918 13.137C8.0918 13.137 8.61898 14.0156 10.0137 14.4329C9.68429 14.8503 9.27791 15.3445 9.27791 15.3445C6.85073 15.2676 5.92829 13.6752 5.92829 13.6752C5.92829 10.1388 7.50974 7.27241 7.50974 7.27241C9.0912 6.0863 10.5958 6.11925 10.5958 6.11925L10.7056 6.25108C8.72881 6.82203 7.81725 7.68975 7.81725 7.68975C7.81725 7.68975 8.05884 7.55799 8.46515 7.37128C9.6403 6.85506 10.5739 6.71235 10.9582 6.67939C11.0241 6.66835 11.079 6.65739 11.1449 6.65739C11.8809 6.56152 12.6257 6.55416 13.3634 6.63547C14.4067 6.75626 15.5269 7.06377 16.669 7.68975C16.669 7.68975 15.8015 6.8661 13.9344 6.295L14.0882 6.11933C14.0882 6.11933 15.5928 6.0863 17.1742 7.27248C17.1742 7.27248 18.7558 10.1388 18.7558 13.6752C18.7558 13.6752 17.8222 15.2676 15.3951 15.3445V15.3445ZM10.2883 10.2157C9.66229 10.2157 9.16815 10.7648 9.16815 11.4347C9.16815 12.1047 9.67325 12.6538 10.2883 12.6538C10.9143 12.6538 11.4085 12.1047 11.4085 11.4347C11.4195 10.7648 10.9142 10.2157 10.2883 10.2157ZM14.2969 10.2157C13.6708 10.2157 13.1766 10.7648 13.1766 11.4347C13.1766 12.1047 13.6819 12.6538 14.2969 12.6538C14.9229 12.6538 15.417 12.1047 15.417 11.4347C15.417 10.7648 14.9229 10.2157 14.2969 10.2157Z" fill="#7289DA"/>
  </g>
  <defs>
    <clipPath id="clip0_7494_10729">
      <rect width="19.2192" height="22" fill="white" transform="translate(2.6665 1)"/>
    </clipPath>
  </defs>
</svg>
