<svg width="20" height="20" viewBox="0 0 20 20" fill="none" xmlns="http://www.w3.org/2000/svg">
<path d="M4.65332 2.65967H15.0446V17.4363H13.5193V10.6677H13.5043C13.3358 8.79696 11.7636 7.33098 9.84898 7.33098C7.93437 7.33098 6.36218 8.79696 6.1936 10.6677H6.17865V17.4363H4.65332V2.65967Z" fill="currentColor"/>
<path d="M1.88867 4.75684L2.50834 6.85417H3.03266V15.3388C2.76941 15.3388 2.556 15.5522 2.556 15.8155V16.3875H2.46066C2.1974 16.3875 1.984 16.6009 1.984 16.8642V17.4362H7.32266V16.8642C7.32266 16.6009 7.10926 16.3875 6.846 16.3875H6.75065V15.8155C6.75065 15.5522 6.53725 15.3388 6.27399 15.3388H5.70199V4.75684H1.88867Z" fill="currentColor"/>
<path d="M13.6151 15.3388C13.3518 15.3388 13.1384 15.5522 13.1384 15.8155V16.3875H13.0431C12.7798 16.3875 12.5664 16.6009 12.5664 16.8642V17.4362H17.9051V16.8642C17.9051 16.6009 17.6917 16.3875 17.4284 16.3875H17.3331V15.8155C17.3331 15.5522 17.1197 15.3388 16.8564 15.3388V6.85417H17.3807L18.0004 4.75684H14.1871V15.3388H13.6151Z" fill="currentColor"/>
</svg>
