<svg width="21" height="20" viewBox="0 0 21 20" fill="none" xmlns="http://www.w3.org/2000/svg">
  <path
    d="M3.26299 16.3991H5.97744V9.80681L2.09961 6.89844V15.2358C2.09961 15.8785 2.62021 16.3992 3.26299 16.3992V16.3991Z"
    fill="#4285F4"/>
  <path
    d="M15.2842 16.3991H17.9987C18.6414 16.3991 19.162 15.8785 19.162 15.2358V6.89844L15.2842 9.80681V16.3991Z"
    fill="#34A853"/>
  <path
    d="M15.2842 4.76608V9.80725L19.162 6.89888V5.34777C19.162 3.91006 17.5208 3.08893 16.37 3.95175L15.2842 4.76608Z"
    fill="#FBBC04"/>
  <path fill-rule="evenodd" clip-rule="evenodd"
        d="M5.97754 9.8068V4.76562L10.6309 8.25569L15.2843 4.76562V9.8068L10.6309 13.2968L5.97754 9.8068Z"
        fill="#EA4335"/>
  <path
    d="M2.09961 5.34777V6.89888L5.97744 9.80725V4.76608L4.89164 3.95175C3.74087 3.08893 2.09961 3.91006 2.09961 5.3477V5.34777Z"
    fill="#C5221F"/>
</svg>
