<svg width="20" height="20" viewBox="0 0 20 20" fill="none" xmlns="http://www.w3.org/2000/svg">
<g clip-path="url(#clip0_863_3838)">
<path d="M3.0075 1.51172L11.4933 10.0001L3.00833 18.4884C2.85745 18.425 2.72869 18.3183 2.63824 18.1819C2.5478 18.0455 2.4997 17.8854 2.5 17.7217V2.27839C2.50007 2.1149 2.54821 1.95505 2.63845 1.81873C2.72869 1.68241 2.85703 1.57564 3.0075 1.51172ZM12.0825 10.5892L14.0008 12.5076L4.88667 17.7851L12.0825 10.5892ZM14.7483 7.92422L17.0875 9.27922C17.2138 9.35247 17.3186 9.45762 17.3915 9.58412C17.4643 9.71063 17.5027 9.85406 17.5027 10.0001C17.5027 10.146 17.4643 10.2895 17.3915 10.416C17.3186 10.5425 17.2138 10.6476 17.0875 10.7209L14.7475 12.0759L12.6717 10.0001L14.7483 7.92422ZM4.88667 2.21505L14.0017 7.49172L12.0825 9.41089L4.88667 2.21505Z" fill="currentColor"/>
</g>
<defs>
<clipPath id="clip0_863_3838">
<rect width="20" height="20" fill="currentColor"/>
</clipPath>
</defs>
</svg>
