<svg width="16" height="16" viewBox="0 0 16 16" fill="none" xmlns="http://www.w3.org/2000/svg">
    <path d="M1.33301 14.667C1.33301 11.7215 3.72082 9.33366 6.66634 9.33366C9.61187 9.33366 11.9997 11.7215 11.9997 14.667H10.6663C10.6663 12.4579 8.87547 10.667 6.66634 10.667C4.4572 10.667 2.66634 12.4579 2.66634 14.667H1.33301ZM6.66634 8.66699C4.45634 8.66699 2.66634 6.87699 2.66634 4.66699C2.66634 2.45699 4.45634 0.666992 6.66634 0.666992C8.87634 0.666992 10.6663 2.45699 10.6663 4.66699C10.6663 6.87699 8.87634 8.66699 6.66634 8.66699ZM6.66634 7.33366C8.13967 7.33366 9.33301 6.14033 9.33301 4.66699C9.33301 3.19366 8.13967 2.00033 6.66634 2.00033C5.19301 2.00033 3.99967 3.19366 3.99967 4.66699C3.99967 6.14033 5.19301 7.33366 6.66634 7.33366ZM12.1888 9.80219C14.0426 10.6377 15.333 12.5017 15.333 14.667H13.9997C13.9997 13.043 13.0319 11.6451 11.6415 11.0184L12.1888 9.80219ZM11.7305 2.2758C13.0626 2.82501 13.9997 4.13607 13.9997 5.66699C13.9997 7.58046 12.5358 9.15046 10.6663 9.31873V7.97673C11.7975 7.81513 12.6663 6.84299 12.6663 5.66699C12.6663 4.74656 12.1341 3.95101 11.3603 3.57123L11.7305 2.2758Z"
          fill="currentColor"/>
</svg>
