<svg width="20" height="20" viewBox="0 0 20 20" fill="none" xmlns="http://www.w3.org/2000/svg">
<path d="M16.6667 4.16667H3.33332V15.8333L11.0769 8.08874C11.4023 7.76329 11.9299 7.76326 12.2554 8.08868L16.6667 12.5087V4.16667ZM1.66666 3.32783C1.66666 2.87063 2.04608 2.5 2.49316 2.5H17.5068C17.9633 2.5 18.3333 2.87079 18.3333 3.32783V16.6722C18.3333 17.1293 17.9539 17.5 17.5068 17.5H2.49316C2.0367 17.5 1.66666 17.1292 1.66666 16.6722V3.32783ZM6.66666 9.16667C5.74618 9.16667 4.99999 8.4205 4.99999 7.5C4.99999 6.57952 5.74618 5.83333 6.66666 5.83333C7.58713 5.83333 8.33332 6.57952 8.33332 7.5C8.33332 8.4205 7.58713 9.16667 6.66666 9.16667Z" fill="currentColor"/>
</svg>
