<svg width="16" height="16" viewBox="0 0 16 16" fill="none" xmlns="http://www.w3.org/2000/svg">
<path d="M8.00065 14.6663C4.31875 14.6663 1.33398 11.6815 1.33398 7.99967C1.33398 4.31777 4.31875 1.33301 8.00065 1.33301C11.6825 1.33301 14.6673 4.31777 14.6673 7.99967C14.6673 11.6815 11.6825 14.6663 8.00065 14.6663ZM8.00065 13.333C10.9462 13.333 13.334 10.9452 13.334 7.99967C13.334 5.05415 10.9462 2.66634 8.00065 2.66634C5.05513 2.66634 2.66732 5.05415 2.66732 7.99967C2.66732 10.9452 5.05513 13.333 8.00065 13.333ZM8.66732 6.99967V9.99967H9.33398V11.333H6.66732V9.99967H7.33398V8.33301H6.66732V6.99967H8.66732ZM9.00065 5.33301C9.00065 5.88529 8.55292 6.33301 8.00065 6.33301C7.44838 6.33301 7.00065 5.88529 7.00065 5.33301C7.00065 4.78072 7.44838 4.33301 8.00065 4.33301C8.55292 4.33301 9.00065 4.78072 9.00065 5.33301Z" fill="currentColor"/>
</svg>
