<svg width="20" height="20" viewBox="0 0 20 20" fill="none" xmlns="http://www.w3.org/2000/svg">
  <path
    d="M9.99935 18.3327C5.39697 18.3327 1.66602 14.6017 1.66602 9.99935C1.66602 5.39697 5.39697 1.66602 9.99935 1.66602C12.7254 1.66602 15.1458 2.975 16.6662 4.99871L14.4084 4.99877C13.2333 3.96184 11.6898 3.33268 9.99935 3.33268C6.31745 3.33268 3.33268 6.31745 3.33268 9.99935C3.33268 13.6813 6.31745 16.666 9.99935 16.666C11.6902 16.666 13.234 16.0365 14.4093 14.9992H16.6668C15.1464 17.0233 12.7258 18.3327 9.99935 18.3327ZM15.8327 13.3327V10.8327H9.16601V9.16602H15.8327V6.66602L19.9993 9.99935L15.8327 13.3327Z"
    fill="currentColor"/>
</svg>
