<svg width="41" height="40" viewBox="0 0 41 40" fill="none" xmlns="http://www.w3.org/2000/svg">
  <g clip-path="url(#clip0_1771_2439)">
    <path
      d="M27.333 5.00033C27.2237 5.53884 27.1663 6.09621 27.1663 6.66699C27.1663 7.23778 27.2237 7.79514 27.333 8.33366H8.01877L20.6028 19.437L29.016 11.9027C29.7268 12.7818 30.6128 13.5134 31.621 14.0445L20.6193 23.897L7.16634 12.0269V31.667H33.833V14.8336C34.3715 14.9429 34.9288 15.0003 35.4997 15.0003C36.0705 15.0003 36.6278 14.9429 37.1663 14.8336V33.3337C37.1663 34.2542 36.4202 35.0003 35.4997 35.0003H5.49967C4.57921 35.0003 3.83301 34.2542 3.83301 33.3337V6.66699C3.83301 5.74653 4.57921 5.00033 5.49967 5.00033H27.333ZM35.4997 1.66699C38.2612 1.66699 40.4997 3.90558 40.4997 6.66699C40.4997 9.42841 38.2612 11.667 35.4997 11.667C32.7382 11.667 30.4997 9.42841 30.4997 6.66699C30.4997 3.90558 32.7382 1.66699 35.4997 1.66699Z"
      fill="currentColor"/>
  </g>
  <defs>
    <clipPath id="clip0_1771_2439">
      <rect width="40" height="40" fill="white" transform="translate(0.5)"/>
    </clipPath>
  </defs>
</svg>
