<svg width="24" height="24" viewBox="0 0 24 24" fill="none" xmlns="http://www.w3.org/2000/svg">
    <path d="M21.0041 2.61087L13.2002 8.4312L14.6433 4.99728L21.0041 2.61087Z" fill="#E2761B"/>
    <path d="M2.98808 2.61087L10.7293 8.48633L9.35671 4.99728L2.98808 2.61087ZM18.1959 16.1024L16.1175 19.3L20.5646 20.5287L21.843 16.1733L18.1959 16.1024ZM2.16455 16.1733L3.43514 20.5287L7.8822 19.3L5.80377 16.1024L2.16455 16.1733Z"
          fill="#E4761B"/>
    <path d="M7.6313 10.6995L6.39209 12.5818L10.8078 12.7787L10.6509 8.01378L7.6313 10.6995ZM16.3607 10.6995L13.3019 7.95865L13.1999 12.7787L17.6078 12.5818L16.3607 10.6995ZM7.88229 19.3L10.5333 18.0005L8.24307 16.2048L7.88229 19.3ZM13.4588 18.0005L16.1176 19.3L15.749 16.2048L13.4588 18.0005Z"
          fill="#E4761B"/>
    <path d="M16.1176 19.3L13.4588 18.0005L13.6706 19.7411L13.647 20.4735L16.1176 19.3ZM7.88232 19.3L10.3529 20.4735L10.3372 19.7411L10.5333 18.0005L7.88232 19.3Z"
          fill="#D7C1B3"/>
    <path d="M10.3919 15.0549L8.18018 14.4012L9.74096 13.6844L10.3919 15.0549ZM13.5998 15.0549L14.2508 13.6844L15.8194 14.4012L13.5998 15.0549Z"
          fill="#233447"/>
    <path d="M7.88214 19.3L8.25861 16.1024L5.80371 16.1733L7.88214 19.3ZM15.741 16.1024L16.1174 19.3L18.1959 16.1733L15.741 16.1024ZM17.6076 12.5818L13.1998 12.7787L13.6076 15.0549L14.2586 13.6845L15.8272 14.4012L17.6076 12.5818ZM8.18018 14.4012L9.74881 13.6845L10.3919 15.0549L10.8076 12.7787L6.39195 12.5818L8.18018 14.4012Z"
          fill="#CD6116"/>
    <path d="M6.39209 12.5818L8.24307 16.2048L8.18032 14.4012L6.39209 12.5818ZM15.8274 14.4012L15.749 16.2048L17.6078 12.5818L15.8274 14.4012ZM10.8078 12.7787L10.3921 15.0549L10.9097 17.7406L11.0274 14.2043L10.8078 12.7787ZM13.1999 12.7787L12.9882 14.1964L13.0823 17.7406L13.6078 15.0549L13.1999 12.7787Z"
          fill="#E4751F"/>
    <path d="M13.6076 15.0549L13.0821 17.7406L13.4586 18.0005L15.7488 16.2048L15.8272 14.4012L13.6076 15.0549ZM8.18018 14.4012L8.24292 16.2048L10.5331 18.0005L10.9096 17.7406L10.3919 15.0549L8.18018 14.4012Z"
          fill="#F6851B"/>
    <path d="M13.647 20.4735L13.6706 19.7411L13.4745 19.5678H10.5176L10.3372 19.7411L10.3529 20.4735L7.88232 19.3L8.74507 20.0089L10.4941 21.2296H13.498L15.2549 20.0089L16.1176 19.3L13.647 20.4735Z"
          fill="#C0AD9E"/>
    <path d="M13.459 18.0005L13.0825 17.7406H10.91L10.5335 18.0005L10.3374 19.7411L10.5178 19.5678H13.4747L13.6707 19.7411L13.459 18.0005Z"
          fill="#161616"/>
    <path d="M21.3333 8.80925L22 5.59586L21.0039 2.61087L13.4588 8.2343L16.3608 10.6995L20.4627 11.9045L21.3725 10.8412L20.9804 10.5577L21.6078 9.98276L21.1216 9.60472L21.749 9.12429L21.3333 8.80925ZM2 5.59586L2.66667 8.80925L2.24314 9.12429L2.87059 9.60472L2.39216 9.98276L3.01961 10.5577L2.62745 10.8412L3.52941 11.9045L7.63137 10.6995L10.5333 8.2343L2.98824 2.61087L2 5.59586Z"
          fill="#763D16"/>
    <path d="M20.4626 11.9045L16.3606 10.6995L17.6077 12.5818L15.7489 16.2048L18.1959 16.1733H21.843L20.4626 11.9045ZM7.63122 10.6995L3.52926 11.9045L2.16455 16.1733H5.80377L8.24298 16.2048L6.392 12.5818L7.63122 10.6995ZM13.1998 12.7787L13.4587 8.2343L14.6508 4.99728H9.35671L10.5332 8.2343L10.8077 12.7787L10.9018 14.2121L10.9096 17.7406H13.0822L13.0979 14.2121L13.1998 12.7787Z"
          fill="#F6851B"/>
</svg>
