<svg width="20" height="20" viewBox="0 0 20 20" fill="none" xmlns="http://www.w3.org/2000/svg">
<path d="M8.33341 5.83366C8.33341 9.05533 10.9451 11.667 14.1667 11.667C15.7987 11.667 17.2742 10.9967 18.333 9.91658C18.3334 9.94449 18.3334 9.97241 18.3334 10.0003C18.3334 14.6027 14.6024 18.3337 10.0001 18.3337C5.39771 18.3337 1.66675 14.6027 1.66675 10.0003C1.66675 5.39795 5.39771 1.66699 10.0001 1.66699C10.028 1.66699 10.0559 1.66699 10.0838 1.6674C9.00366 2.72614 8.33341 4.20163 8.33341 5.83366ZM3.33341 10.0003C3.33341 13.6822 6.31818 16.667 10.0001 16.667C12.5487 16.667 14.7632 15.2369 15.8851 13.1354C15.3288 13.2659 14.753 13.3337 14.1667 13.3337C10.0246 13.3337 6.66675 9.97583 6.66675 5.83366C6.66675 5.24739 6.73452 4.67155 6.865 4.11533C4.76351 5.23718 3.33341 7.45174 3.33341 10.0003Z" fill="currentColor"/>
</svg>
