<svg width="25" height="24" viewBox="0 0 25 24" fill="none" xmlns="http://www.w3.org/2000/svg">
<path d="M9.17603 2.4578V4.58152C6.2442 5.76829 4.17603 8.64262 4.17603 12C4.17603 16.4183 7.75775 20 12.176 20C15.5334 20 18.4077 17.9318 19.5945 15H21.7182C20.4439 19.0571 16.6536 22 12.176 22C6.65318 22 2.17603 17.5228 2.17603 12C2.17603 7.52236 5.11892 3.73207 9.17603 2.4578ZM12.176 2C17.6988 2 22.176 6.47715 22.176 12C22.176 12.3375 22.1593 12.6711 22.1266 13H11.176V2.04938C11.5049 2.01672 11.8385 2 12.176 2ZM13.176 4.06189V11H20.1141C19.6629 7.38128 16.7947 4.51314 13.176 4.06189Z" fill="currentColor"/>
</svg>
