<svg width="20" height="20" viewBox="0 0 20 20" fill="none" xmlns="http://www.w3.org/2000/svg">
  <path
    d="M9.99935 18.3327C5.39697 18.3327 1.66602 14.6017 1.66602 9.99935C1.66602 5.39697 5.39697 1.66602 9.99935 1.66602C14.6017 1.66602 18.3327 5.39697 18.3327 9.99935C18.3327 14.6017 14.6017 18.3327 9.99935 18.3327ZM9.99935 16.666C13.6813 16.666 16.666 13.6813 16.666 9.99935C16.666 6.31745 13.6813 3.33268 9.99935 3.33268C6.31745 3.33268 3.33268 6.31745 3.33268 9.99935C3.33268 13.6813 6.31745 16.666 9.99935 16.666ZM9.16602 12.4993H10.8327V14.166H9.16602V12.4993ZM10.8327 11.1286V11.666H9.16602V10.416C9.16602 9.95577 9.5391 9.58268 9.99935 9.58268C10.6897 9.58268 11.2493 9.02302 11.2493 8.33268C11.2493 7.64232 10.6897 7.08268 9.99935 7.08268C9.39293 7.08268 8.88735 7.51454 8.77335 8.08749L7.13877 7.76057C7.40466 6.42367 8.58435 5.41602 9.99935 5.41602C11.6102 5.41602 12.916 6.72185 12.916 8.33268C12.916 9.65393 12.0374 10.77 10.8327 11.1286Z"
    fill="currentColor"/>
</svg>
