<svg width="20" height="20" viewBox="0 0 20 20" fill="none" xmlns="http://www.w3.org/2000/svg">
    <path fill-rule="evenodd" clip-rule="evenodd"
          d="M1.99377 15.5946V8.37538C1.99377 6.84401 2.35267 5.73187 3.07038 5.03911C3.7881 4.34635 4.87824 4 6.34075 4H9.30817V5.96892H6.95014C6.01576 5.96892 5.35216 6.21676 4.95945 6.71263C4.56674 7.2085 4.37042 7.98875 4.37042 9.05341V15.5946H1.99377ZM10.7422 15.5946C8.95468 15.5946 8.06086 14.3914 8.06086 11.985C8.06086 10.862 8.28427 9.97958 8.73115 9.33786C9.17803 8.69615 9.84844 8.37538 10.7422 8.37538H15.6171V7.6315C15.6171 6.52308 15.1161 5.96892 14.114 5.96892H10.9729V4H14.9672C15.9557 4 16.7073 4.31362 17.2219 4.94076C17.7364 5.56789 17.9938 6.39181 17.9938 7.41273V13.6257C17.9938 14.9383 17.3844 15.5946 16.1656 15.5946H10.7422ZM11.6561 13.6257H15.0077C15.414 13.6257 15.6171 13.4069 15.6171 12.9694V10.3441H11.6561C10.8978 10.3441 10.5186 10.8912 10.5186 11.985C10.5186 13.0788 10.8978 13.6257 11.6561 13.6257Z"
          fill="currentColor"/>
</svg>
