<svg xmlns="http://www.w3.org/2000/svg" fill="none" viewBox="0 0 32 32" class="h-8 w-8"><path fill="currentColor" fill-rule="evenodd" d="M2.309 14.796a15.035 15.035 0 0 0 12.086 14.743 8.2 8.2 0 0 0 3.224 0 15.035 15.035 0 0 0 12.086-14.743V9.912a7.61 7.61 0 0 0-7.61-7.61H9.919a7.61 7.61 0 0 0-7.61 7.61zm13.693-5.734h.003a5.416 5.416 0 0 1 5.417 5.416v4.566a.85.85 0 0 1-1.7 0v-4.566a3.716 3.716 0 0 0-3.715-3.716 3.7 3.7 0 0 0-1.92.551.85.85 0 0 1-.895-1.446 5.4 5.4 0 0 1 2.81-.805m.855 5.29a.85.85 0 0 0-1.7 0v4.692a.85.85 0 0 0 1.7 0zm-4.566.125a.85.85 0 0 0-1.701 0v4.566a.85.85 0 0 0 1.7 0z" clip-rule="evenodd"></path></svg>