<svg width="25" height="24" viewBox="0 0 25 24" fill="none" xmlns="http://www.w3.org/2000/svg">
  <g clip-path="url(#clip0_10252_5596)">
    <path
      d="M14.167 2C14.167 2.44425 13.9739 2.84339 13.667 3.11805V5H18.667C20.3239 5 21.667 6.34315 21.667 8V18C21.667 19.6569 20.3239 21 18.667 21H6.66699C5.01014 21 3.66699 19.6569 3.66699 18V8C3.66699 6.34315 5.01014 5 6.66699 5H11.667V3.11805C11.3601 2.84339 11.167 2.44425 11.167 2C11.167 1.17157 11.8386 0.5 12.667 0.5C13.4954 0.5 14.167 1.17157 14.167 2ZM6.66699 7C6.11471 7 5.66699 7.44772 5.66699 8V18C5.66699 18.5523 6.11471 19 6.66699 19H18.667C19.2193 19 19.667 18.5523 19.667 18V8C19.667 7.44772 19.2193 7 18.667 7H13.667H11.667H6.66699ZM2.66699 10H0.666992V16H2.66699V10ZM22.667 10H24.667V16H22.667V10ZM9.66699 14.5C10.4954 14.5 11.167 13.8284 11.167 13C11.167 12.1716 10.4954 11.5 9.66699 11.5C8.83856 11.5 8.16699 12.1716 8.16699 13C8.16699 13.8284 8.83856 14.5 9.66699 14.5ZM15.667 14.5C16.4954 14.5 17.167 13.8284 17.167 13C17.167 12.1716 16.4954 11.5 15.667 11.5C14.8386 11.5 14.167 12.1716 14.167 13C14.167 13.8284 14.8386 14.5 15.667 14.5Z"
      fill="currentColor"/>
  </g>
  <defs>
    <clipPath id="clip0_10252_5596">
      <rect width="24" height="24" fill="white" transform="translate(0.666992)"/>
    </clipPath>
  </defs>
</svg>
