<svg width="82" height="82" viewBox="0 0 82 82" fill="none" xmlns="http://www.w3.org/2000/svg">
<path d="M38.3351 25.3737C39.4534 23.2109 42.5466 23.2109 43.6649 25.3737L47.3779 32.5549C47.6632 33.1068 48.1129 33.5565 48.6649 33.8419L55.846 37.5549C58.0089 38.6732 58.0089 41.7663 55.846 42.8846L48.6649 46.5976C48.1129 46.883 47.6632 47.3327 47.3779 47.8846L43.6649 55.0657C42.5466 57.2286 39.4534 57.2286 38.3351 55.0657L34.6221 47.8846C34.3368 47.3327 33.8871 46.883 33.3351 46.5976L26.154 42.8846C23.9911 41.7663 23.9911 38.6732 26.154 37.5549L33.3351 33.8419C33.8871 33.5565 34.3368 33.1068 34.6221 32.5549L38.3351 25.3737Z" fill="currentColor"/>
</svg>
