<svg width="138" height="133" viewBox="0 0 138 133" fill="none" xmlns="http://www.w3.org/2000/svg">
<path id="Star 1" d="M46.6588 16.7591C53.6909 -4.88334 84.3091 -4.88334 91.3412 16.7591V16.7591C94.486 26.4379 103.505 32.9909 113.682 32.9909V32.9909C136.439 32.9909 145.9 62.1106 127.49 75.4864V75.4864C119.257 81.4682 115.812 92.0712 118.956 101.75V101.75C125.988 123.392 101.218 141.389 82.8076 128.014V128.014C74.5743 122.032 63.4257 122.032 55.1924 128.014V128.014C36.7822 141.389 12.0115 123.392 19.0436 101.75V101.75C22.1884 92.0712 18.7433 81.4682 10.51 75.4864V75.4864C-7.90012 62.1106 1.56144 32.9909 24.3176 32.9909V32.9909C34.4945 32.9909 43.514 26.4379 46.6588 16.7591V16.7591Z" fill="white" fill-opacity="0.05"/>
</svg>
