<svg width="82" height="82" viewBox="0 0 82 82" fill="none" xmlns="http://www.w3.org/2000/svg">
<path d="M37.7166 23.859C39.5988 22.2201 42.4012 22.2201 44.2834 23.859L46.752 26.0085C47.4288 26.5979 48.2517 26.9942 49.1345 27.1559L52.3542 27.7457C54.809 28.1954 56.5564 30.3865 56.4485 32.8799L56.3071 36.1501C56.2683 37.0467 56.4716 37.9372 56.8955 38.7281L58.4418 41.6131C59.6208 43.8128 58.9972 46.545 56.9806 48.0153L54.3356 49.9437C53.6105 50.4724 53.041 51.1865 52.6869 52.0111L51.3955 55.0188C50.4108 57.3121 47.8858 58.5281 45.4789 57.8681L42.3222 57.0025C41.4567 56.7652 40.5433 56.7652 39.6778 57.0025L36.5211 57.8681C34.1142 58.5281 31.5892 57.3121 30.6045 55.0188L29.3131 52.0111C28.959 51.1865 28.3895 50.4724 27.6644 49.9437L25.0194 48.0153C23.0028 46.545 22.3792 43.8128 23.5582 41.6131L25.1045 38.7281C25.5284 37.9372 25.7317 37.0467 25.6929 36.1501L25.5515 32.8799C25.4436 30.3865 27.191 28.1954 29.6458 27.7457L32.8655 27.1559C33.7483 26.9942 34.5712 26.5979 35.248 26.0085L37.7166 23.859Z" fill="currentColor"/>
</svg>
