<svg width="24" height="24" viewBox="0 0 24 24" fill="none" xmlns="http://www.w3.org/2000/svg">
<path d="M12 23C18.0751 23 23 18.0751 23 12C23 5.92488 18.0751 1 12 1C5.92488 1 1 5.92488 1 12C1 18.0751 5.92488 23 12 23Z" fill="#34AADF"/>
<path d="M5.57784 11.9048C5.57784 11.9048 11.0778 9.64761 12.9853 8.85279C13.7166 8.53489 16.1963 7.51753 16.1963 7.51753C16.1963 7.51753 17.3408 7.07247 17.2455 8.15337C17.2136 8.59847 16.9593 10.1562 16.705 11.8412C16.3235 14.2256 15.9102 16.8325 15.9102 16.8325C15.9102 16.8325 15.8466 17.5638 15.3062 17.6909C14.7657 17.8181 13.8755 17.2459 13.7166 17.1187C13.5894 17.0233 11.3322 15.5927 10.5056 14.8932C10.283 14.7025 10.0287 14.321 10.5373 13.8759C11.6819 12.8268 13.0489 11.5233 13.8755 10.6967C14.257 10.3152 14.6385 9.42506 13.0489 10.506C10.7917 12.0638 8.56628 13.5262 8.56628 13.5262C8.56628 13.5262 8.05759 13.8441 7.10385 13.558C6.15006 13.2719 5.03734 12.8904 5.03734 12.8904C5.03734 12.8904 4.27438 12.4135 5.57784 11.9048Z" fill="white"/>
</svg>
