<svg width="20" height="20" viewBox="0 0 20 20" fill="none" xmlns="http://www.w3.org/2000/svg">
<path d="M16.667 9.99984C16.667 13.6818 13.6822 16.6665 10.0003 16.6665C6.31843 16.6665 3.33366 13.6818 3.33366 9.99984C3.33366 6.31794 6.31843 3.33317 10.0003 3.33317C13.6822 3.33317 16.667 6.31794 16.667 9.99984ZM10.0003 18.3332C14.6027 18.3332 18.3337 14.6022 18.3337 9.99984C18.3337 5.39746 14.6027 1.6665 10.0003 1.6665C5.39795 1.6665 1.66699 5.39746 1.66699 9.99984C1.66699 14.6022 5.39795 18.3332 10.0003 18.3332ZM10.299 7.81855C9.48841 8.15569 7.86849 8.8535 5.43916 9.91192C5.04467 10.0688 4.83803 10.2223 4.81921 10.3723C4.78742 10.6259 5.105 10.7258 5.53748 10.8618C5.5963 10.8803 5.65726 10.8994 5.71974 10.9198C6.14523 11.058 6.71758 11.2198 7.01513 11.2263C7.28503 11.2321 7.58627 11.1208 7.91884 10.8924C10.1887 9.36025 11.3603 8.58584 11.4339 8.56917C11.4858 8.55734 11.5577 8.54259 11.6064 8.58584C11.6552 8.62917 11.6503 8.71117 11.6452 8.73317C11.6137 8.86734 10.3671 10.0263 9.72191 10.6261C9.52958 10.8049 9.34208 10.9876 9.15308 11.1698C8.75783 11.5508 8.46141 11.8365 9.16949 12.3032C9.88733 12.7763 10.6106 13.2483 11.3107 13.7474C11.6559 13.9936 11.9662 14.2148 12.3493 14.1795C12.5721 14.159 12.8021 13.9496 12.9188 13.3251C13.1949 11.8493 13.7376 8.65159 13.863 7.33386C13.874 7.21842 13.8602 7.07067 13.8491 7.00581C13.838 6.94095 13.8147 6.84854 13.7305 6.78013C13.6306 6.69911 13.4765 6.68203 13.4076 6.68325C13.0941 6.68877 12.6132 6.85598 10.299 7.81855Z" fill="currentColor"/>
</svg>
