<svg width="20" height="20" viewBox="0 0 20 20" fill="none" xmlns="http://www.w3.org/2000/svg">
  <g clip-path="url(#clip0_5370_4572)">
    <path
      d="M10 20C15.5417 20 20 15.5417 20 10C20 4.4583 15.5417 0 10 0C4.4583 0 0 4.4583 0 10C0 15.5417 4.4583 20 10 20Z"
      fill="#2775CA"/>
    <path
      d="M12.75 11.5833C12.75 10.125 11.875 9.62498 10.125 9.41668C8.875 9.24998 8.625 8.91668 8.625 8.33328C8.625 7.74988 9.0417 7.37498 9.875 7.37498C10.625 7.37498 11.0417 7.62498 11.25 8.24998C11.2917 8.37498 11.4167 8.45828 11.5417 8.45828H12.2083C12.375 8.45828 12.5 8.33328 12.5 8.16668V8.12498C12.3333 7.20828 11.5833 6.49998 10.625 6.41668V5.41668C10.625 5.24998 10.5 5.12498 10.2917 5.08328H9.6667C9.5 5.08328 9.375 5.20828 9.3333 5.41668V6.37498C8.0833 6.54168 7.2917 7.37498 7.2917 8.41668C7.2917 9.79168 8.125 10.3333 9.875 10.5417C11.0417 10.75 11.4167 11 11.4167 11.6667C11.4167 12.3334 10.8333 12.7917 10.0417 12.7917C8.9583 12.7917 8.5833 12.3333 8.4583 11.7083C8.4167 11.5417 8.2917 11.4583 8.1667 11.4583H7.4583C7.2917 11.4583 7.1667 11.5833 7.1667 11.75V11.7917C7.3333 12.8333 8 13.5833 9.375 13.7917V14.7917C9.375 14.9583 9.5 15.0833 9.7083 15.125H10.3333C10.5 15.125 10.625 15 10.6667 14.7917V13.7917C11.9167 13.5833 12.75 12.7083 12.75 11.5833Z"
      fill="white"/>
    <path
      d="M7.875 15.9583C4.625 14.7917 2.9583 11.1667 4.1667 7.95829C4.7917 6.20829 6.1667 4.87499 7.875 4.24999C8.0417 4.16669 8.125 4.04169 8.125 3.83329V3.24999C8.125 3.08329 8.0417 2.95829 7.875 2.91669C7.8333 2.91669 7.75 2.91669 7.7083 2.95829C3.75 4.20829 1.5833 8.41669 2.8333 12.375C3.5833 14.7083 5.375 16.5 7.7083 17.25C7.875 17.3333 8.0417 17.25 8.0833 17.0833C8.125 17.0417 8.125 17 8.125 16.9167V16.3333C8.125 16.2083 8 16.0417 7.875 15.9583ZM12.2917 2.95829C12.125 2.87499 11.9583 2.95829 11.9167 3.12499C11.875 3.16669 11.875 3.20829 11.875 3.29169V3.87499C11.875 4.04169 12 4.20829 12.125 4.29169C15.375 5.45829 17.0417 9.08329 15.8333 12.2917C15.2083 14.0417 13.8333 15.375 12.125 16C11.9583 16.0833 11.875 16.2083 11.875 16.4167V17C11.875 17.1667 11.9583 17.2917 12.125 17.3333C12.1667 17.3333 12.25 17.3333 12.2917 17.2917C16.25 16.0417 18.4167 11.8333 17.1667 7.87499C16.4167 5.49999 14.5833 3.70829 12.2917 2.95829Z"
      fill="white"/>
  </g>
  <defs>
    <clipPath id="clip0_5370_4572">
      <rect width="20" height="20" fill="white"/>
    </clipPath>
  </defs>
</svg>
