<svg width="25" height="24" viewBox="0 0 25 24" fill="none" xmlns="http://www.w3.org/2000/svg">
<path d="M20.176 22H18.176V20C18.176 18.3431 16.8329 17 15.176 17H9.17603C7.51918 17 6.17603 18.3431 6.17603 20V22H4.17603V20C4.17603 17.2386 6.41461 15 9.17603 15H15.176C17.9374 15 20.176 17.2386 20.176 20V22ZM12.176 13C8.86232 13 6.17603 10.3137 6.17603 7C6.17603 3.68629 8.86232 1 12.176 1C15.4897 1 18.176 3.68629 18.176 7C18.176 10.3137 15.4897 13 12.176 13ZM12.176 11C14.3851 11 16.176 9.20914 16.176 7C16.176 4.79086 14.3851 3 12.176 3C9.96689 3 8.17603 4.79086 8.17603 7C8.17603 9.20914 9.96689 11 12.176 11Z" fill="currentColor"/>
</svg>
