<svg width="14" height="19" viewBox="0 0 14 19" fill="none" xmlns="http://www.w3.org/2000/svg">
  <path
    d="M6.99983 9.16139C9.21252 9.16139 11.0063 7.28608 11.0063 4.97278C11.0063 2.65948 9.21252 0.78418 6.99983 0.78418C4.78715 0.78418 2.99341 2.65948 2.99341 4.97278C2.99341 7.28608 4.78715 9.16139 6.99983 9.16139Z"
    fill="currentColor" />
  <path
    d="M13.75 14.856C13.6715 14.9488 13.5911 15.0401 13.509 15.1296C11.8685 16.92 9.55875 18.0346 7 18.0346C4.44125 18.0346 2.13154 16.92 0.49097 15.1296C0.408903 15.0401 0.328548 14.9488 0.25 14.856C1.45738 12.2293 4.02625 10.416 7 10.416C9.97375 10.416 12.5426 12.2293 13.75 14.856Z"
    fill="currentColor" />
</svg>
