<svg width="25" height="24" viewBox="0 0 25 24" fill="none" xmlns="http://www.w3.org/2000/svg">
<path d="M10.1774 14.6759C10.1771 14.6553 10.177 14.6347 10.177 14.614C10.177 12.1057 12.1935 9.99589 14.9299 9.38117C14.5664 7.07898 12.1362 5.2002 9.077 5.2002C5.75639 5.2002 3.177 7.41368 3.177 9.97954C3.177 10.9489 3.53733 11.8802 4.21684 12.6783C4.24882 12.7159 4.30045 12.7719 4.36944 12.8429C4.96139 13.4519 5.31311 14.2459 5.37148 15.0807C6.08459 14.6685 6.91887 14.5125 7.73434 14.6394C7.90018 14.6652 8.03588 14.6849 8.13947 14.6984C8.44713 14.7385 8.76021 14.7588 9.077 14.7588C9.45427 14.7588 9.82197 14.7303 10.1774 14.6759ZM10.6341 16.6272C10.1307 16.7135 9.61001 16.7588 9.077 16.7588C8.67043 16.7588 8.27104 16.7325 7.88101 16.6817C7.75914 16.6658 7.60772 16.6438 7.42675 16.6156C7.05295 16.5574 6.67038 16.6323 6.34732 16.827L4.44255 17.9747C4.29654 18.0648 4.12493 18.1059 3.95335 18.0918C3.51416 18.0556 3.1878 17.6746 3.22439 17.2407L3.37461 15.4598C3.41266 15.0088 3.25266 14.5634 2.93533 14.2369C2.83784 14.1366 2.75742 14.0493 2.69404 13.9749C1.74008 12.8544 1.177 11.4734 1.177 9.97954C1.177 6.23541 4.71395 3.2002 9.077 3.2002C13.1361 3.2002 16.4801 5.82724 16.9264 9.20813C20.2985 9.36161 22.977 11.7232 22.977 14.614C22.977 15.807 22.5208 16.9099 21.748 17.8046C21.6966 17.8641 21.6315 17.9338 21.5525 18.0139C21.2954 18.2746 21.1658 18.6303 21.1966 18.9905L21.3183 20.4127C21.348 20.7592 21.0836 21.0634 20.7278 21.0923C20.5888 21.1036 20.4498 21.0708 20.3315 20.9988L18.7884 20.0823C18.5266 19.9268 18.2167 19.867 17.9139 19.9135C17.7673 19.936 17.6446 19.9535 17.5459 19.9662C17.2299 20.0068 16.9063 20.0279 16.577 20.0279C13.8834 20.0279 11.5785 18.6203 10.6341 16.6272ZM17.6106 17.9366C18.1779 17.8496 18.7553 17.9112 19.2865 18.1113C19.4252 17.5505 19.7133 17.0306 20.1284 16.6096C20.1787 16.5587 20.2148 16.52 20.2344 16.4973C20.7227 15.932 20.977 15.2841 20.977 14.614C20.977 12.8097 19.0743 11.2002 16.577 11.2002C14.0797 11.2002 12.177 12.8097 12.177 14.614C12.177 16.4183 14.0797 18.0279 16.577 18.0279C16.8184 18.0279 17.0569 18.0126 17.291 17.9825C17.3717 17.9722 17.4789 17.9568 17.6106 17.9366Z" fill="currentColor"/>
</svg>
