<svg width="243" height="130" fill="none" xmlns="http://www.w3.org/2000/svg">
<path d="M242 130V77H192L242 130Z" fill="currentColor"/>
<path fill-rule="evenodd" clip-rule="evenodd" d="M1 13.0732C1 6.40535 6.40534 1 13.0732 1H229.927C236.595 1 242 6.40534 242 13.0732V77V81V109.862C242 117.102 233.149 120.618 228.181 115.352L198.142 83.5102C196.63 81.9081 194.525 81 192.323 81H13.0732C6.40535 81 1 75.5947 1 68.9268V13.0732Z" fill="white"/>
<path d="M198.142 83.5102L197.778 83.8533L198.142 83.5102ZM228.181 115.352L227.817 115.695L228.181 115.352ZM13.0732 0.5C6.1292 0.5 0.5 6.1292 0.5 13.0732H1.5C1.5 6.68149 6.68149 1.5 13.0732 1.5V0.5ZM229.927 0.5H13.0732V1.5H229.927V0.5ZM242.5 13.0732C242.5 6.1292 236.871 0.5 229.927 0.5V1.5C236.319 1.5 241.5 6.68149 241.5 13.0732H242.5ZM242.5 77V13.0732H241.5V77H242.5ZM242.5 81V77H241.5V81H242.5ZM242.5 109.862V81H241.5V109.862H242.5ZM197.778 83.8533L227.817 115.695L228.545 115.009L198.505 83.1671L197.778 83.8533ZM13.0732 81.5H192.323V80.5H13.0732V81.5ZM0.5 68.9268C0.5 75.8708 6.1292 81.5 13.0732 81.5V80.5C6.68149 80.5 1.5 75.3185 1.5 68.9268H0.5ZM0.5 13.0732V68.9268H1.5V13.0732H0.5ZM198.505 83.1671C196.9 81.4649 194.663 80.5 192.323 80.5V81.5C194.387 81.5 196.361 82.3513 197.778 83.8533L198.505 83.1671ZM241.5 109.862C241.5 116.65 233.202 119.946 228.545 115.009L227.817 115.695C233.096 121.29 242.5 117.555 242.5 109.862H241.5Z" fill="#112A0A"/>
</svg>
