<svg width="135" height="159" viewBox="0 0 135 159" fill="none" xmlns="http://www.w3.org/2000/svg">
<mask id="path-1-inside-1_4003_2125" fill="white">
<path fill-rule="evenodd" clip-rule="evenodd" d="M12.0732 0C5.40534 0 0 5.40534 0 12.0732V68.8389C0 75.4663 5.37258 80.8389 12 80.8389H39C45.6274 80.8389 51 86.2115 51 92.8389V147C51 153.627 56.3726 159 63 159H122.927C129.595 159 135 153.595 135 146.927V12.0732C135 5.40534 129.595 0 122.927 0H12.0732Z"/>
</mask>
<path fill-rule="evenodd" clip-rule="evenodd" d="M12.0732 0C5.40534 0 0 5.40534 0 12.0732V68.8389C0 75.4663 5.37258 80.8389 12 80.8389H39C45.6274 80.8389 51 86.2115 51 92.8389V147C51 153.627 56.3726 159 63 159H122.927C129.595 159 135 153.595 135 146.927V12.0732C135 5.40534 129.595 0 122.927 0H12.0732Z" fill="currentColor"/>
<path d="M1 12.0732C1 5.95762 5.95763 1 12.0732 1V-1C4.85306 -1 -1 4.85305 -1 12.0732H1ZM1 68.8389V12.0732H-1V68.8389H1ZM12 81.8389H39V79.8389H12V81.8389ZM50 92.8389V147H52V92.8389H50ZM122.927 158H63V160H122.927V158ZM134 146.927C134 153.042 129.042 158 122.927 158V160C130.147 160 136 154.147 136 146.927H134ZM134 12.0732V146.927H136V12.0732H134ZM122.927 1C129.042 1 134 5.95763 134 12.0732H136C136 4.85306 130.147 -1 122.927 -1V1ZM12.0732 1H122.927V-1H12.0732V1ZM50 147C50 154.18 55.8203 160 63 160V158C56.9249 158 52 153.075 52 147H50ZM39 81.8389C45.0751 81.8389 50 86.7637 50 92.8389H52C52 85.6592 46.1797 79.8389 39 79.8389V81.8389ZM-1 68.8389C-1 76.0186 4.8203 81.8389 12 81.8389V79.8389C5.92487 79.8389 1 74.914 1 68.8389H-1Z" fill="#112A0A" mask="url(#path-1-inside-1_4003_2125)"/>
<g clip-path="url(#clip0_4003_2125)">
<path d="M48.8816 33.8287V40.5656H26.65L32.7132 34.5024L30.3553 32.1445L20.25 42.2498L30.3553 52.3551L32.7132 49.9972L26.65 43.934H52.25V33.8287H48.8816Z" fill="#112A0A"/>
</g>
<defs>
<clipPath id="clip0_4003_2125">
<rect width="32" height="32" fill="white" transform="translate(20.25 26.25)"/>
</clipPath>
</defs>
</svg>
