<svg width="158" height="163" viewBox="0 0 158 163" fill="none" xmlns="http://www.w3.org/2000/svg">
<mask id="path-1-inside-1_1888_2154" fill="white">
<path fill-rule="evenodd" clip-rule="evenodd" d="M12.0732 0.226562C5.40534 0.226562 0 5.63188 0 12.2997V69.0654C0 75.6928 5.37258 81.0654 12 81.0654H39C45.6274 81.0654 51 86.438 51 93.0654V151.001C51 157.628 56.3726 163.001 63 163.001H145.927C152.595 163.001 158 157.595 158 150.928V12.2997C158 5.63191 152.595 0.226562 145.927 0.226562H12.0732Z"/>
</mask>
<path fill-rule="evenodd" clip-rule="evenodd" d="M12.0732 0.226562C5.40534 0.226562 0 5.63188 0 12.2997V69.0654C0 75.6928 5.37258 81.0654 12 81.0654H39C45.6274 81.0654 51 86.438 51 93.0654V151.001C51 157.628 56.3726 163.001 63 163.001H145.927C152.595 163.001 158 157.595 158 150.928V12.2997C158 5.63191 152.595 0.226562 145.927 0.226562H12.0732Z" fill="currentColor"/>
<path d="M1.09756 12.2997C1.09756 6.23805 6.01151 1.32412 12.0732 1.32412V-0.870999C4.79918 -0.870999 -1.09756 5.02571 -1.09756 12.2997H1.09756ZM1.09756 69.0654V12.2997H-1.09756V69.0654H1.09756ZM12 82.163H39V79.9679H12V82.163ZM49.9024 93.0654V151.001H52.0976V93.0654H49.9024ZM145.927 161.903H63V164.098H145.927V161.903ZM156.902 150.928C156.902 156.989 151.988 161.903 145.927 161.903V164.098C153.201 164.098 159.098 158.202 159.098 150.928H156.902ZM156.902 12.2997V150.928H159.098V12.2997H156.902ZM145.927 1.32412C151.988 1.32412 156.902 6.23807 156.902 12.2997H159.098C159.098 5.02574 153.201 -0.870999 145.927 -0.870999V1.32412ZM12.0732 1.32412H145.927V-0.870999H12.0732V1.32412ZM49.9024 151.001C49.9024 158.234 55.7664 164.098 63 164.098V161.903C56.9788 161.903 52.0976 157.022 52.0976 151.001H49.9024ZM39 82.163C45.0213 82.163 49.9024 87.0442 49.9024 93.0654H52.0976C52.0976 85.8318 46.2336 79.9679 39 79.9679V82.163ZM-1.09756 69.0654C-1.09756 76.299 4.76642 82.163 12 82.163V79.9679C5.97875 79.9679 1.09756 75.0867 1.09756 69.0654H-1.09756Z" fill="#131313" mask="url(#path-1-inside-1_1888_2154)"/>
</svg>
