<svg width="150" height="156" viewBox="0 0 150 156" fill="none" xmlns="http://www.w3.org/2000/svg">
<mask id="path-1-inside-1_4002_1970" fill="white">
<path fill-rule="evenodd" clip-rule="evenodd" d="M12.0732 0C5.40534 0 0 5.40534 0 12.0732V69.0645C0 75.6919 5.37258 81.0645 12 81.0645H39C45.6274 81.0645 51 86.437 51 93.0645V144C51 150.627 56.3726 156 63 156H137.927C144.595 156 150 150.595 150 143.927V12.0732C150 5.40534 144.595 0 137.927 0H12.0732Z"/>
</mask>
<path fill-rule="evenodd" clip-rule="evenodd" d="M12.0732 0C5.40534 0 0 5.40534 0 12.0732V69.0645C0 75.6919 5.37258 81.0645 12 81.0645H39C45.6274 81.0645 51 86.437 51 93.0645V144C51 150.627 56.3726 156 63 156H137.927C144.595 156 150 150.595 150 143.927V12.0732C150 5.40534 144.595 0 137.927 0H12.0732Z" fill="currentColor"/>
<path d="M1 12.0732C1 5.95763 5.95763 1 12.0732 1V-1C4.85306 -1 -1 4.85306 -1 12.0732H1ZM1 69.0645V12.0732H-1V69.0645H1ZM12 82.0645H39V80.0645H12V82.0645ZM50 93.0645V144H52V93.0645H50ZM137.927 155H63V157H137.927V155ZM149 143.927C149 150.042 144.042 155 137.927 155V157C145.147 157 151 151.147 151 143.927H149ZM149 12.0732V143.927H151V12.0732H149ZM137.927 1C144.042 1 149 5.95763 149 12.0732H151C151 4.85306 145.147 -1 137.927 -1V1ZM12.0732 1H137.927V-1H12.0732V1ZM50 144C50 151.18 55.8203 157 63 157V155C56.9249 155 52 150.075 52 144H50ZM39 82.0645C45.0751 82.0645 50 86.9893 50 93.0645H52C52 85.8848 46.1797 80.0645 39 80.0645V82.0645ZM-1 69.0645C-1 76.2442 4.8203 82.0645 12 82.0645V80.0645C5.92487 80.0645 1 75.1396 1 69.0645H-1Z" fill="#112A0A" mask="url(#path-1-inside-1_4002_1970)"/>
</svg>
