<svg width="135" height="159" viewBox="0 0 135 159" fill="none" xmlns="http://www.w3.org/2000/svg">
<mask id="path-1-inside-1_4003_2126" fill="white">
<path fill-rule="evenodd" clip-rule="evenodd" d="M12.0732 0C5.40534 0 0 5.40534 0 12.0732V68.8389C0 75.4663 5.37258 80.8389 12 80.8389H39C45.6274 80.8389 51 86.2114 51 92.8389V147C51 153.627 56.3726 159 63 159H122.927C129.595 159 135 153.595 135 146.927V12.0732C135 5.40534 129.595 0 122.927 0H12.0732Z"/>
</mask>
<path fill-rule="evenodd" clip-rule="evenodd" d="M12.0732 0C5.40534 0 0 5.40534 0 12.0732V68.8389C0 75.4663 5.37258 80.8389 12 80.8389H39C45.6274 80.8389 51 86.2114 51 92.8389V147C51 153.627 56.3726 159 63 159H122.927C129.595 159 135 153.595 135 146.927V12.0732C135 5.40534 129.595 0 122.927 0H12.0732Z" fill="currentColor"/>
<path d="M1.09756 12.0732C1.09756 6.0115 6.01151 1.09756 12.0732 1.09756V-1.09756C4.79918 -1.09756 -1.09756 4.79917 -1.09756 12.0732H1.09756ZM1.09756 68.8389V12.0732H-1.09756V68.8389H1.09756ZM12 81.9364H39V79.7413H12V81.9364ZM49.9024 92.8389V147H52.0976V92.8389H49.9024ZM122.927 157.902H63V160.098H122.927V157.902ZM133.902 146.927C133.902 152.988 128.988 157.902 122.927 157.902V160.098C130.201 160.098 136.098 154.201 136.098 146.927H133.902ZM133.902 12.0732V146.927H136.098V12.0732H133.902ZM122.927 1.09756C128.988 1.09756 133.902 6.01151 133.902 12.0732H136.098C136.098 4.79918 130.201 -1.09756 122.927 -1.09756V1.09756ZM12.0732 1.09756H122.927V-1.09756H12.0732V1.09756ZM49.9024 147C49.9024 154.234 55.7664 160.098 63 160.098V157.902C56.9788 157.902 52.0976 153.021 52.0976 147H49.9024ZM39 81.9364C45.0213 81.9364 49.9024 86.8176 49.9024 92.8389H52.0976C52.0976 85.6053 46.2336 79.7413 39 79.7413V81.9364ZM-1.09756 68.8389C-1.09756 76.0724 4.76642 81.9364 12 81.9364V79.7413C5.97875 79.7413 1.09756 74.8601 1.09756 68.8389H-1.09756Z" fill="#131313" mask="url(#path-1-inside-1_4003_2126)"/>
<g clip-path="url(#clip0_4003_2126)">
<path d="M48.8816 34.8287V41.5656H26.65L32.7132 35.5024L30.3553 33.1445L20.25 43.2498L30.3553 53.3551L32.7132 50.9972L26.65 44.934H52.25V34.8287H48.8816Z" fill="#112A0A"/>
</g>
<defs>
<clipPath id="clip0_4003_2126">
<rect width="32" height="32" fill="white" transform="translate(20.25 27.25)"/>
</clipPath>
</defs>
</svg>
